<svg xmlns="http://www.w3.org/2000/svg" version="1.1" xmlns:xlink="http://www.w3.org/1999/xlink" xmlns:svgjs="http://svgjs.dev/svgjs" viewBox="0 0 8.74048860937942 7.463465355794415"><g transform="matrix(1,0,0,1,4.377981927666475,5.921996801016972)"><g transform="matrix(1,0,0,1,0,0)"><path d=" M -2.097716105049228 -0.23942471802454554 Q -2.0535159629742683 -0.11349224907172395 -2.152589971007236 -0.07531063082048314 Q -2.195073213545537 -0.06039973951808708 -2.238038477091457 -0.07599469512654099 Q -2.282520999299459 -0.09105711890276647 -2.2963668269373985 -0.13050584411690333 Q -2.3064849317497385 -0.1593337586964649 -2.289131706975393 -0.18757863061918825 Q -2.2767824531849197 -0.21065885788883346 -2.2494717972674403 -0.2202444308689452 Q -2.175126122825413 -0.24633849064813834 -2.1506296585429054 -0.17654459219235769 Q -2.137848894569423 -0.1401303843023852 -2.1613514908267004 -0.11483969286922313 Q -2.1093928381528837 -0.14159713213985758 -2.1376170252609903 -0.22201184123021353 Q -2.1440074072477318 -0.24021894517519976 -2.1538845015562624 -0.25379393629933633 Q -2.2617084857894545 -0.4153372447960994 -2.545424311979584 -0.47594965686864676 L -2.606144484472865 -0.48872127964675227 Q -2.696718668004794 -0.36320203848618593 -2.787754187729725 -0.33125012855248004 Q -2.8469272755509305 -0.31048138709557127 -2.8910379395959103 -0.33419516784666453 Q -2.936133330470744 -0.35585915810344715 -2.9569020719276526 -0.4150322459246525 Q -2.975540686055648 -0.46813629909752896 -2.9691594452642835 -0.5470635755357961 L -3.14652717625407 -0.571723115911373 Q -3.2912589330040927 -0.5907956426462398 -3.37825452376039 -0.625020071187312 Q -3.486200214457418 -0.665524718870529 -3.549482024462621 -0.7438598114565811 Q -3.542237763305239 -0.7037982175756126 -3.5298690259120806 -0.6612748066200098 Q -3.5175002885189217 -0.618751395664407 -3.5009918017198407 -0.5717163771398591 Q -3.403538476422038 -0.2940580419788187 -3.29425688554675 -0.2011930574487697 Q -3.2581847098098065 -0.1712495683801415 -3.222499305240882 -0.1496911703702668 Q -3.1868139006719574 -0.12813277236039217 -3.153565057765362 -0.11594419223912483 Q -3.0855501132900893 -0.09209956382881868 -3.0400323534276237 -0.10807551879567157 Q -2.986928300254747 -0.12671413292366668 -2.996624036079455 -0.19318199272686382 Q -2.9995277057444065 -0.21602120949269976 -3.0069831513956045 -0.2372628307618504 Q -3.058638739121762 -0.38443692098382265 -3.224219574163297 -0.4677668433583697 Q -3.2324187361405397 -0.4717057506777847 -3.2320468779775178 -0.4803571076526525 Q -3.232659746644349 -0.4869586741332097 -3.225073453333938 -0.48962133329435187 Q -3.2205216773476915 -0.4912189287910371 -3.218471886853381 -0.4902342019611834 Q -3.179606204296082 -0.476608700012437 -3.141564574899431 -0.45076479193243 Q -3.10352294550278 -0.424920883852423 -3.0663053692667765 -0.3868585696411555 Q -2.9918702167947693 -0.3107339412186203 -2.962048434189977 -0.22576745614201774 Q -2.9386170335719264 -0.15900807501040146 -2.9519211881822605 -0.09980516117920285 Q -2.9665819277854704 -0.029901099878825776 -3.0287895329308396 -0.008067294757460153 Q -3.084928103427881 0.011636383034991815 -3.154540643399839 -0.01676002136156096 Q -3.363830458313338 -0.09838218539482635 -3.5097441803439278 -0.5141110588053458 Q -3.533175580961979 -0.5808704399369621 -3.5507238760132123 -0.6454342699100581 Q -3.5682721710644456 -0.7099980998831543 -3.5789526337190076 -0.7744161691920408 Q -3.611246575805742 -0.8227274358748615 -3.6250924034436816 -0.8621761610889984 Q -3.6522515268873317 -0.9395563528551898 -3.6143200603352765 -0.9528696486609005 Q -3.5961129563902903 -0.9592600306476418 -3.576519441442435 -0.9422786640363185 Q -3.5569259264945794 -0.9252972974249953 -3.546807821682239 -0.8964693828454338 Q -3.540949971527726 -0.8797795375625299 -3.541799280100679 -0.8530668373068855 Q -3.5426485886736314 -0.826354137051241 -3.5511897828039025 -0.7875687913285454 Q -3.498317598939459 -0.724325948528712 -3.415049731008761 -0.7007223306222152 Q -3.384915742260933 -0.692552994654966 -3.3339923272415803 -0.6882720551825221 Q -3.283068912222227 -0.6839911157100782 -3.212873329593431 -0.683066040900211 Q -3.1253750330148993 -0.6813972497642994 -3.05567181380103 -0.6794472797072769 Q -2.9859685945871606 -0.6774973096502545 -2.935045179567808 -0.6732163701778104 Q -2.90824637066794 -0.747380686136015 -2.8579954763354056 -0.8178471052786138 Q -2.819721977630322 -0.8738846541264351 -2.7778010929342423 -0.9243857001581561 Q -2.7358802082381626 -0.9748867461898771 -2.689859742553462 -1.0234183385618907 Q -2.8441679310882195 -0.9726671408309836 -3.0818541503982715 -0.9846767648922912 Q -3.1862029659289135 -0.99065632151064 -3.2838446227320905 -1.006658733101729 Q -3.3814862795352676 -1.0226611446928184 -3.472420777610979 -1.048686411256648 Q -3.733990592536707 -1.123888367293179 -3.8017231568789374 -1.2586030408800815 L -3.80438581604008 -1.2661893341904924 Q -3.808113538865679 -1.2768101448250677 -3.800527245555268 -1.2794728039862098 Q -3.7899064349206926 -1.2832005268118087 -3.786711243927322 -1.2740969748393156 Q -3.738361010039131 -1.1751836404755542 -3.5168826150043646 -1.126810319348884 Q -3.4188943554504703 -1.1049649706082787 -3.3048291192805035 -1.0955790385027433 Q -3.190763883110537 -1.0861931063972077 -3.0626714608188084 -1.090251317756596 Q -2.81255565088368 -1.096237613146459 -2.6699333366479543 -1.1462956053759314 Q -2.5409663503709683 -1.1915608111153482 -2.562800155492334 -1.2537684162607177 Q -2.5771785149625015 -1.2947344001369367 -2.67381018952352 -1.3272808963467204 Q -2.766874814928145 -1.359375197558879 -2.9584304057089 -1.3807592101064823 Q -2.9757331196586354 -1.3815029264325267 -2.9819628279761705 -1.389541414740563 L -2.9824953598083987 -1.391058673402645 Q -2.9846254871373126 -1.3971277080509739 -2.9740046765027373 -1.4008554308765728 Q -2.964901124530244 -1.4040506218699433 -2.94706587874828 -1.4017896468818167 Q -2.7478436578225116 -1.3779839856768807 -2.7126253612562086 -1.3698949865442347 Q -2.566667867172523 -1.3376193268482535 -2.530937723588608 -1.2649515847375146 Q -2.527290337597612 -1.2594150819214143 -2.5256927421009268 -1.2548633059351677 Q -2.5240951466042416 -1.2503115299489214 -2.521965019275328 -1.2442424953005926 Q -2.4884155138449366 -1.1486551995894148 -2.5894291495276183 -1.0723011042823098 Q -2.607023384805773 -1.0593091558150116 -2.6312846103940917 -1.0337521984657352 Q -2.6555458359824096 -1.008195241116459 -2.6889760373728278 -0.9674909525586658 Q -2.7274102097471173 -0.9216220193477944 -2.7587504522259234 -0.8773908500509099 Q -2.790090694704729 -0.8331596807540254 -2.8128197486259685 -0.7910988072033561 Q -2.8306251683979395 -0.75928688612424 -2.8446374415147044 -0.7288062946256949 Q -2.8586497146314698 -0.6983257031271499 -2.8698535679228834 -0.6671266507148652 Q -2.7883439691580776 -0.6582434244315649 -2.7143804952863806 -0.644155385077885 Q -2.6404170214146836 -0.630067345724205 -2.573467140603868 -0.6092572346380631 Q -2.5131577934789795 -0.7190415313355859 -2.493683582571097 -0.8383517489932338 Q -2.493311724408075 -0.8470031059681017 -2.4841278356009786 -0.8451139891429973 Q -2.477978464118047 -0.842159808653436 -2.476833063618987 -0.8340409835107966 Q -2.4861386588899195 -0.7148914395223549 -2.540218297697273 -0.5970686545167958 Q -2.445103881798337 -0.5639896264747837 -2.3507331822254454 -0.5136078844830358 Q -2.2563624826525537 -0.4632261424912881 -2.1924827169855154 -0.39532593145830025 Q -2.128602951318477 -0.3274257204253124 -2.097716105049228 -0.23942471802454554 M -2.6515313966761176 -0.4966496051101921 Q -2.704584939024384 -0.5069995792309648 -2.7660235724314046 -0.5169627821837186 Q -2.827462205838425 -0.5269259851364724 -2.8957686716421165 -0.5370349487534358 Q -2.8981604942894563 -0.495295422541179 -2.8859122621482025 -0.46039847331328876 Q -2.8560904795434103 -0.37543198823668616 -2.7696067358047256 -0.40578630267370674 Q -2.714985423969767 -0.42495744863393026 -2.6515313966761176 -0.4966496051101921 M -2.5094493420670383 -1.57344732942739 Q -2.5128222186603284 -1.4561117970448827 -2.655875128003385 -1.4602239342613599 Q -2.7265979146448966 -1.462256900975124 -2.804387102018647 -1.4982749438943552 Q -2.9171218486126103 -1.5497754947107776 -2.993340107162088 -1.6404429636711766 Q -3.067997233440481 -1.7294568927825922 -3.0657794515709202 -1.8066090236642407 Q -3.0623603711886807 -1.9255518921067825 -2.9225221339656926 -1.9215321624682038 Q -2.850192011264147 -1.9194529919654904 -2.7708416916193115 -1.8817814091972758 Q -2.6756028265299294 -1.8372184442994317 -2.599107345246756 -1.7561949916992388 Q -2.5070929488306297 -1.655421468489142 -2.5094493420670383 -1.57344732942739 M -2.544071474764607 -1.6001811897448217 Q -2.543008787618776 -1.6371499191256118 -2.5723468742467497 -1.6798185286765392 Q -2.6093982146522507 -1.733969509592453 -2.7296151960789956 -1.8049891120740336 Q -2.8592913787101497 -1.8827152815294463 -2.939658181711867 -1.8850254709769056 Q -3.011988304413413 -1.8871046414796186 -3.0137440483934816 -1.8260258711983135 Q -3.0151301620619573 -1.777805789397283 -2.955807135760721 -1.714971275135909 Q -2.8980452417305695 -1.6537903007235184 -2.8076283848212906 -1.609365947192522 Q -2.688695312931936 -1.549643900920131 -2.61636519023039 -1.547564730417418 Q -2.545642403588879 -1.5455317637036539 -2.544071474764607 -1.6001811897448217 M -2.487018538657617 -1.875872187531987 Q -2.555866442069468 -1.922248482724601 -2.658104955343619 -1.9965249506231975 Q -2.76034346861777 -2.070801418521794 -2.891067680732821 -2.165317569855305 Q -2.9197256032143244 -2.184771915771941 -2.9359903490439643 -2.2006853459206304 Q -2.952255094873604 -2.2165987760693198 -2.9611831364422634 -2.2284339572571294 Q -2.980265447334933 -2.254019441950516 -2.9679755820386733 -2.287540950911179 L -2.956030164023622 -2.319491784835283 Q -2.9520483580186045 -2.3301420628099843 -2.9493685604536792 -2.3386085518704522 Q -2.946688762888754 -2.3470750409309202 -2.946881648800479 -2.3537021883583624 Q -2.938063844059061 -2.3188442148151083 -2.874155307811111 -2.2612045277701176 Q -2.8102467715631607 -2.2035648407251274 -2.6956150816371456 -2.125747457058585 Q -2.713815612055673 -2.147847144397646 -2.744870871634256 -2.1826431311275374 Q -2.77592613121284 -2.2174391178574293 -2.815661428034737 -2.2689545345254105 Q -2.8590754081226843 -2.326215318146693 -2.8939471184654226 -2.3848952154350505 Q -2.9288188288081605 -2.4435751127234075 -2.918829857653118 -2.489124688783605 Q -2.9109075701853255 -2.5252502146244513 -2.8839029718248637 -2.5357902557719116 Q -2.856898373464402 -2.546330296919371 -2.8270555477697896 -2.5397857985764123 Q -2.7909300219289435 -2.53186351110862 -2.76885792233264 -2.4973913093888154 Q -2.7467858227363373 -2.462919107669011 -2.7526414265168797 -2.4362176320475157 Q -2.755052557485338 -2.425222906791606 -2.7623479372040767 -2.414476185861042 Q -2.769643316922815 -2.4037294649304783 -2.779067367142166 -2.4057961486177284 Q -2.7869207423249587 -2.4075183850237707 -2.7932998854270554 -2.4122097478623252 Q -2.799679028529152 -2.4169011107008798 -2.809103078748503 -2.4189677943881303 Q -2.8326632042968813 -2.424134503606256 -2.8374854662337987 -2.402145053094436 Q -2.8392077026398406 -2.394291677911643 -2.838208816938715 -2.380079821897875 Q -2.8372099312375902 -2.3658679658841066 -2.8200427426626877 -2.33905625343537 Q -2.788849715586 -2.286121723100313 -2.7427146133908855 -2.222502458648055 Q -2.696579511195771 -2.158883194195797 -2.635715882065075 -2.0986188279995024 Q -2.5748522529343796 -2.0383544618032077 -2.496235852021969 -1.991482157959902 Q -2.4743979628796327 -1.9784620735589837 -2.4814384698732836 -1.938850750363812 Q -2.490008327361251 -1.8847589045584048 -2.487018538657617 -1.875872187531987 M -2.3207732407250887 -2.493080686201875 Q -2.351356293983016 -2.4187245374754736 -2.412484831978138 -2.396922049117973 Q -2.463119449774827 -2.37949687030732 -2.5151687538833083 -2.4009050075878693 Q -2.591012025584238 -2.4320997219109555 -2.571438871499164 -2.4796876570958526 Q -2.5640989387172617 -2.497533132790189 -2.544598221294924 -2.5068994129490423 Q -2.523610380898058 -2.515654032042737 -2.5042777822291935 -2.507702438195676 Q -2.4923807984329693 -2.5028091496744076 -2.4873918278209635 -2.4938023524505026 Q -2.471549454075576 -2.4646831767391015 -2.4432941175595433 -2.453061616501089 Q -2.4150387810435108 -2.4414400562630765 -2.3898533725672717 -2.4519455991755104 Q -2.362569180051346 -2.4633266039973134 -2.350335958748175 -2.4930690634878743 Q -2.3374910763798455 -2.524298645952963 -2.3479125599155424 -2.558142991432159 Q -2.3650739378819847 -2.6051917022146336 -2.420097487939522 -2.6278231616255 Q -2.467685423124419 -2.6473963157105738 -2.5375685802132355 -2.646581667749939 Q -2.556721437414626 -2.6422884175798282 -2.5863261851260804 -2.637947326364349 Q -2.6159309328375353 -2.633606235148869 -2.655987571059055 -2.629217302888021 Q -2.678114674209501 -2.6261473748482276 -2.6982328640539976 -2.630075330726389 Q -2.7183510538984947 -2.634003286604551 -2.736196529592831 -2.641343219386454 Q -2.798655694523008 -2.6670329841231126 -2.8168722758662943 -2.7284253229624458 Q -2.835964319118949 -2.791916445841465 -2.8053812658610218 -2.866272594567867 Q -2.796818010948802 -2.887092316211259 -2.7840992176455774 -2.905333493171912 Q -2.771380424342353 -2.923574670132565 -2.7527551688293848 -2.935039734331105 Q -2.7134058737637616 -2.9588453246375543 -2.6762277994005608 -2.9435537980085904 Q -2.6598694466807524 -2.9368255262918463 -2.648931984170634 -2.9253720848073073 Q -2.6157717364193322 -2.8960847903424325 -2.6341215683740886 -2.8514711011065916 Q -2.654306383524321 -2.8023960429471666 -2.704868564658274 -2.823192519162557 Q -2.719739794403554 -2.829309129814143 -2.728314672029775 -2.8380521261938365 Q -2.7413509185795797 -2.848630105769006 -2.7446005880868474 -2.8830020529366243 Q -2.768214814211822 -2.880543785961989 -2.7798363744498342 -2.8522884494459566 Q -2.7902346125575295 -2.82700735887898 -2.783230917282574 -2.8102170865614875 Q -2.7666812003812904 -2.761681252804485 -2.7190932651963933 -2.7421080987194113 Q -2.6863765597567766 -2.728651555285923 -2.640371429637145 -2.7305938432861376 Q -2.633199615608716 -2.7311214449745593 -2.5228279007006953 -2.750056992187742 Q -2.44805145509061 -2.7627686239446008 -2.4078991347783534 -2.7462537751853198 Q -2.343952846873648 -2.7199523493835023 -2.319344231320565 -2.640282615252149 Q -2.2932484927929537 -2.5600012200556366 -2.3207732407250887 -2.493080686201875 M -2.1332773017405025 -2.865083902202141 Q -2.166319915017218 -2.811783051816379 -2.2242100286426565 -2.7946969369732133 Q -2.256052364656795 -2.786058060821613 -2.286843203591032 -2.792848645901402 Q -2.3176340425252695 -2.7996392309811915 -2.350434565839585 -2.8199731468437856 Q -2.4761699052111266 -2.8979198243170634 -2.536147822546357 -3.078887579124731 Q -2.5871590592128673 -3.231593621355395 -2.528699051107909 -3.3258951258840517 Q -2.50921238173959 -3.357328960726937 -2.4792561761740357 -3.3690290183385168 Q -2.4457193471713476 -3.3804012714329765 -2.415652200799892 -3.361761848558932 Q -2.340484334871253 -3.3151632913738203 -2.327165463024671 -3.168796475774333 Q -2.323418428378684 -3.1229594505287768 -2.337846845032537 -3.060011084188872 Q -2.3542975591920596 -2.990748717468974 -2.3703952425832804 -2.9647816365118076 Q -2.3357892854745135 -2.916841617106449 -2.283855123560181 -2.884646250324008 Q -2.1950203729172437 -2.8295752281961484 -2.1543525411920554 -2.895176274824779 Q -2.1009760120527456 -2.981277648524857 -2.166445909524878 -3.125919726984026 L -2.1712570543763574 -3.136469959835394 L -2.147287044673678 -3.153772938389777 L -2.1416286533279236 -3.1445893940098393 Q -2.0944753921133024 -3.0680598575103564 -2.0952369240528577 -2.9966390262277045 Q -2.095998455992413 -2.925218194945052 -2.1332773017405025 -2.865083902202141 M -2.388545467631938 -2.9873849577430573 Q -2.3741422772292675 -3.010618661757364 -2.3637584555867526 -3.0609390273372803 Q -2.35892208448409 -3.0901034568115104 -2.35672327159427 -3.1180651000728705 Q -2.3545244587044496 -3.1460267433342306 -2.3580243854874507 -3.1708994699341355 Q -2.3742934979881096 -3.2850406745994136 -2.4439946100310297 -3.3282502458074266 Q -2.4740617564024854 -3.346889668681471 -2.4876177003108815 -3.3250226531385945 Q -2.511340602150575 -3.2867553759385597 -2.4653321477955794 -3.150394124962103 Q -2.4420681996295044 -3.081106531991022 -2.388545467631938 -2.9873849577430573 M -1.69491933213367 -3.3632365857211144 Q -1.8100492846106597 -3.295725598921586 -1.8665069356193686 -3.385647946992457 Q -1.8892817263469204 -3.4244869671051763 -1.8822082632746768 -3.4696442769471676 Q -1.8759481855855604 -3.5161886946503276 -1.839883381195178 -3.5373367146116257 Q -1.8135283318329756 -3.5527910368910356 -1.7824817635077548 -3.5411713210929876 Q -1.7574629524373786 -3.5334732659733605 -1.7428220155410954 -3.5085053244723263 Q -1.7029661317678801 -3.4405370392750676 -1.7667730933816335 -3.4031213116512324 Q -1.8000636820496787 -3.383600062456188 -1.8293890829407742 -3.4018212579871223 Q -1.7931716698423652 -3.3559523019006887 -1.7196549532004317 -3.3990617272064116 Q -1.7030096588664092 -3.408822351803934 -1.6915787364041042 -3.4211175292187077 Q -1.5536886781411887 -3.557896854879605 -1.5485618881928789 -3.8479696915134856 L -1.5476614486126938 -3.910011958594585 Q -1.6882098262439849 -3.9748572835549236 -1.7370129492315955 -4.058083755225037 Q -1.7687349791735425 -4.11218096181061 -1.7539125914123295 -4.160018090707068 Q -1.7412906968954118 -4.208428942081566 -1.6871934903098382 -4.240150972023513 Q -1.638644715168939 -4.268619460432953 -1.5599571537538173 -4.27747964545029 L -1.5697398057637786 -4.456285978245446 Q -1.5787525994891423 -4.601990515708299 -1.5618314576223185 -4.693931906158536 Q -1.5427606920805415 -4.8076385661466405 -1.4780024213172607 -4.8847575688356635 Q -1.5159336593789818 -4.869971365702167 -1.555299203635807 -4.849683929457932 Q -1.5946647478926326 -4.829396493213697 -1.637665091588858 -4.804181546336764 Q -1.891505830182703 -4.6553320212245515 -1.9617107932519737 -4.5302814929712 Q -1.9841877090342848 -4.4891402404755 -1.998509007436063 -4.449985253103682 Q -2.012830305837841 -4.410830265731864 -2.0184222643810443 -4.375862036728224 Q -2.0287927960843244 -4.3045384708597725 -2.004391234590519 -4.262925235024715 Q -1.9759227461810795 -4.214376459883816 -1.9125442408081539 -4.236628397702669 Q -1.8906845746024137 -4.2438544694829385 -1.871265064546054 -4.255241864846715 Q -1.7367156020127044 -4.334140247010018 -1.6866564801858621 -4.512619862703031 Q -1.6843615902736953 -4.521421835680212 -1.6757992802015989 -4.522714546873509 Q -1.6694374633737978 -4.524580980544848 -1.6653705364581635 -4.517645441239005 Q -1.662930380308783 -4.5134841176555 -1.6635041027868247 -4.511283624411204 Q -1.6694301209029847 -4.470527301057803 -1.687506050196705 -4.428238603606021 Q -1.7055819794904254 -4.385949906154238 -1.735807819961706 -4.342128834604074 Q -1.7962595009042677 -4.254486691503743 -1.8739375411297066 -4.208937110048639 Q -1.934970287021123 -4.173148153191058 -1.9956254462410534 -4.174861978154371 Q -2.067043408777376 -4.175856814402427 -2.1003922094855767 -4.232728236710338 Q -2.13048746866127 -4.284051227573574 -2.115955613374484 -4.357814949591406 Q -2.0759476486195916 -4.578866452739815 -1.695880094659408 -4.80173404771657 Q -1.6348473487679915 -4.837523004574152 -1.5748422163801161 -4.86711717439041 Q -1.5148370839922407 -4.896711344206668 -1.4536590718636107 -4.919537004503562 Q -1.412430765170853 -4.960489463663519 -1.3763659607804706 -4.981637483624817 Q -1.3056234598608745 -5.023120138164286 -1.2852888252827033 -4.9884424416350726 Q -1.2755282006851811 -4.97179714730105 -1.2884406276765261 -4.949312889047925 Q -1.3013530546678709 -4.926828630794801 -1.3277081040300733 -4.911374308515391 Q -1.3429662905029276 -4.9024270693009955 -1.3693467746498014 -4.898142243029541 Q -1.3957272587966747 -4.893857416758086 -1.4354305338618634 -4.894808725907613 Q -1.4873707743016709 -4.830798286016491 -1.4945821611403147 -4.744550593248142 Q -1.4968261814831394 -4.71340962825505 -1.4912704075676522 -4.662609490300514 Q -1.4857146336521647 -4.611809352345976 -1.4731724508614925 -4.542737149291163 Q -1.4580448456842259 -4.456540326092157 -1.4466029095157014 -4.387754984276365 Q -1.4351609733471766 -4.318969642460572 -1.4296051994316894 -4.2681695045060355 Q -1.351680153830352 -4.25607780536863 -1.272890853276546 -4.220260006354145 Q -1.2105580537210194 -4.193432973652586 -1.1529603002270403 -4.16196529155735 Q -1.095362546733061 -4.130497609462115 -1.0389122381951652 -4.094628940878288 Q -1.1182899461686393 -4.236353605622566 -1.152045703431578 -4.471936964057761 Q -1.166171129889975 -4.575498070306045 -1.1691742586743523 -4.674396763611389 Q -1.1721773874587296 -4.773295456916733 -1.1640582185690873 -4.867531737279136 Q -1.1403688310460738 -5.138664389666827 -1.0211284245549206 -5.230954524631646 L -1.0141928852490776 -5.23502145154728 Q -1.0044831302208976 -5.240715149229168 -1.0004162033052635 -5.233779609923325 Q -0.9947225056233756 -5.224069854895146 -1.0030451527903872 -5.219189542596385 Q -1.0908614042848337 -5.152782473654411 -1.0959011400360854 -4.926139011962798 Q -1.0985662741489248 -4.825780577677679 -1.085922352219568 -4.712030390591044 Q -1.0732784302902112 -4.598280203504411 -1.0447517298406162 -4.473338756860556 Q -0.9909518704739337 -4.229004295017521 -0.9144936444600104 -4.098616156067678 Q -0.8453558868942286 -3.9807119878683506 -0.788484464586318 -4.014060788576551 Q -0.7510325523347672 -4.036022193920976 -0.7376046149055357 -4.1370996169213505 Q -0.7239370145712192 -4.234589438816261 -0.7396530271681538 -4.426693127745061 Q -0.7422384495547478 -4.443817747889254 -0.7355425731539904 -4.451472275910351 L -0.7341554652928217 -4.4522856612934785 Q -0.7286070338481476 -4.455539202825986 -0.7229133361662596 -4.445829447797806 Q -0.7180330238674986 -4.4375068006307945 -0.716834709342073 -4.419568795103475 Q -0.7020264787961368 -4.2194765185806204 -0.7032174508507494 -4.183360844620896 Q -0.7069282907809877 -4.033923439815365 -0.7714033715406543 -3.9849315234920115 Q -0.7761384176022015 -3.9802908740983356 -0.7802997411857071 -3.977850717948955 Q -0.784461064769213 -3.9754105617995745 -0.790009496213887 -3.9721570202670673 Q -0.877397291467506 -3.920913741130076 -0.9716917838700645 -4.005425581522673 Q -0.9878142252953878 -4.020204442185356 -1.017546318878047 -4.039119191646876 Q -1.0472784124607057 -4.058033941108394 -1.093634036828123 -4.083045409707957 Q -1.1460174184503842 -4.11197853898594 -1.1954341197791594 -4.134262990197102 Q -1.2448508211079343 -4.1565474414082635 -1.290487456760096 -4.170796106691435 Q -1.3251216261907806 -4.182176159584397 -1.3577223321636482 -4.19008844282444 Q -1.3903230381365157 -4.19800072606448 -1.4230907738958614 -4.203018962129642 Q -1.4161914192177347 -4.121317522087098 -1.4158463459385586 -4.046025097206291 Q -1.4155012726593825 -3.9707326723254837 -1.4230975886403252 -3.9010358772232863 Q -1.3037916276382036 -3.8628796611981064 -1.1829606350085127 -3.8666272134824102 Q -1.174398324936416 -3.867919924675707 -1.1744927216042875 -3.8585442292204837 Q -1.1762138890384126 -3.8519427494875975 -1.1839628137273823 -3.849262930433132 Q -1.3026877097806493 -3.835565960215563 -1.4286895471835286 -3.866067648219645 Q -1.4429308699958867 -3.766377333080439 -1.4742968129524379 -3.664101595554639 Q -1.505662755908989 -3.561825858028839 -1.5600649160474414 -3.486119397985655 Q -1.614467076185894 -3.4104129379424712 -1.69491933213367 -3.3632365857211144 M -1.5485765731345051 -3.956077050487574 Q -1.548583915605318 -4.010130729974619 -1.5505775232000127 -4.0723400268421965 Q -1.5525711307947072 -4.1345493237097735 -1.555737618130156 -4.203527130096715 Q -1.5971620606294699 -4.197876959513357 -1.6290655414363466 -4.17916909570144 Q -1.7067435816617855 -4.133619514246336 -1.6603806148235556 -4.054554366159729 Q -1.6310987410309892 -4.00461848315766 -1.5485765731345051 -3.956077050487574 M -0.4395830916211235 -4.020389446042745 Q -0.5013724153872061 -4.009671497893485 -0.5526044607508421 -4.041585101636377 Q -0.5802170538426594 -4.05964359677705 -0.5955994293616554 -4.087167592333521 Q -0.6109818048806513 -4.114691587889991 -0.6175774652801957 -4.152715787130657 Q -0.6428608301451161 -4.298475217553211 -0.5474594115646123 -4.463536564272627 Q -0.4672226240380407 -4.603119297901883 -0.3579030512211253 -4.622081821550574 Q -0.3214631936154868 -4.628402662766804 -0.29281589725527046 -4.613787670079501 Q -0.2620346208933977 -4.596278813305456 -0.255988598860482 -4.561423297334845 Q -0.24087354377819264 -4.474284507408318 -0.3414154280529298 -4.367083917099844 Q -0.37318335954222426 -4.333829268088142 -0.42981569229019256 -4.302789697866835 Q -0.49251057239495755 -4.269066509277244 -0.522613063460485 -4.263844944794272 Q -0.5354499941181856 -4.206129860636927 -0.5250068651522404 -4.145924878505872 Q -0.5071436182368075 -4.042942672229068 -0.43109521975547505 -4.056133993028157 Q -0.33128169674872626 -4.0734476015769605 -0.26667807985397624 -4.2184786707315265 L -0.2619896284137513 -4.22908399727495 L -0.23313208633507898 -4.2226655319461 L -0.23623619614027613 -4.2123350245859905 Q -0.2621037778502525 -4.126247463251744 -0.31598791876507737 -4.079364476680159 Q -0.36987205967990217 -4.032481490108576 -0.4395830916211235 -4.020389446042745 M -0.5177789397666623 -4.29242766768963 Q -0.49084513197119045 -4.2970995938059735 -0.44633789393681556 -4.3227719272907095 Q -0.4213278204245441 -4.338534244852248 -0.3989690785481286 -4.355468675273842 Q -0.3766103366717131 -4.372403105695437 -0.36034642888452356 -4.391544352245487 Q -0.28584932139045693 -4.479539122539053 -0.2998650997394888 -4.5603405459254684 Q -0.30591112177240454 -4.595196061896079 -0.3312605879328487 -4.5907989549630495 Q -0.37562215371362595 -4.583104017830248 -0.446967103261518 -4.458119751564414 Q -0.4832943392613208 -4.394698038022327 -0.5177789397666623 -4.29242766768963 M 0.22099465339080684 -4.057296521656978 Q 0.1856324127494363 -4.05828308783408 0.16371213962776068 -4.079806772143955 Q 0.1323269947270024 -4.108029018255106 0.134120751412642 -4.172324001239416 Q 0.1352866932583077 -4.214115740179218 0.1512329136954301 -4.266755505887004 Q 0.09402607488173018 -4.176659848317156 0.032938834604167716 -4.120453588565494 Q -0.029710936330861498 -4.06589954730558 -0.07793217356909407 -4.06724486481981 Q -0.11972391250889562 -4.068410806665476 -0.14280312103376913 -4.106053080638569 Q -0.16753454805039142 -4.142132823954195 -0.16578563528189286 -4.204820432363897 Q -0.1615254631534989 -4.357521016951634 -0.020369388680600037 -4.516054116030032 Q 0.0028962019553052942 -4.542751668958391 0.03245675913821869 -4.564447722494362 Q 0.06201731632113203 -4.586143776030332 0.09626546547644574 -4.6028831740910565 Q 0.16636913836168085 -4.636317126295364 0.23066412134599093 -4.634523369609725 Q 0.3094254755017707 -4.632326017669817 0.35460433281688397 -4.57958955768528 Q 0.3655420474191513 -4.568024028243038 0.3651384521648824 -4.553557657071569 Q 0.36437610557348554 -4.526232289303237 0.33562273889911 -4.533468978110206 Q 0.3211633741701081 -4.591782901967495 0.26169051490962125 -4.593442126901712 Q 0.19418078277609566 -4.595325571421633 0.0999146409121354 -4.503046574796812 Q 0.06678058324287864 -4.468581212498261 0.03679400884712583 -4.4316151005035165 Q 0.006807434451373079 -4.394648988508773 -0.020076500588016716 -4.353574752243227 Q -0.09242236933030124 -4.239772071308531 -0.09444034560164576 -4.167440215451182 Q -0.09596503878443939 -4.112789479914519 -0.05417329984463784 -4.111623538068853 Q -0.007559437181013012 -4.110323064471764 0.05549392900828512 -4.1793434769031474 Q 0.0903250490864316 -4.216978744433773 0.12725682682773679 -4.2722502883679425 Q 0.16418860456904197 -4.3275218323021125 0.20482841454811349 -4.400384808722685 Q 0.22175419471986976 -4.430476486468822 0.23515131832242367 -4.449406230026987 Q 0.24854844192497758 -4.468335973585153 0.2568543783008622 -4.477756001447094 Q 0.2832898741688421 -4.502756491966562 0.3186072708930717 -4.500162551214853 L 0.35062023063380376 -4.49444354914821 Q 0.37138156835228164 -4.489038454501554 0.3859376273580334 -4.4918496083965005 Q 0.3710676609322947 -4.4777868324793 0.3501010223654485 -4.447003577238711 Q 0.32913438379860227 -4.4162203219981215 0.3020262291735075 -4.367109212859537 Q 0.2732210121395232 -4.314828198488878 0.2543291060560312 -4.27192236806302 Q 0.23543719997253923 -4.229016537637161 0.22806597941414739 -4.195441047238963 Q 0.22440279109352204 -4.179456989327167 0.22241424322321587 -4.165839149360142 Q 0.2204256953529097 -4.152221309393117 0.22011178793292277 -4.1409696873708635 Q 0.21894584608725706 -4.099177948431062 0.2414490901317656 -4.098550133591088 Q 0.27359658162392064 -4.097653255248268 0.3318278240893955 -4.166808199431074 L 0.3384815419735314 -4.174665696635549 L 0.36058119076377104 -4.159571510624105 L 0.3538826289624941 -4.150106638845023 Q 0.28528963637511695 -4.055502764971338 0.22099465339080684 -4.057296521656978 M 0.453438880723034 -4.024754975747591 Q 0.407724262060289 -4.033959163083788 0.4169284493964857 -4.079673781746532 Q 0.42264139326033195 -4.10804837264065 0.4513967460663678 -4.153107094382399 L 0.9146351232845098 -4.873411870709964 Q 0.9187400129167195 -4.87750619765189 0.9196921702273605 -4.882235296134242 Q 0.9206443275380015 -4.886964394616595 0.9212790990784289 -4.890117126938164 Q 0.9260398856316341 -4.913762619349929 0.9122016640256412 -4.942793107165041 L 0.997325436707994 -4.925654275573503 Q 1.0414636892099547 -4.91676747400752 1.037337674197177 -4.8962747139173235 Q 1.0354333595758949 -4.886816516952618 1.0212143760579837 -4.865075339162136 L 0.5586107703802692 -4.14792329515614 Q 0.5279616656432353 -4.1016055930238196 0.5200270213878933 -4.062196439004212 Q 0.5127271486729786 -4.025940017306173 0.5322571887622496 -4.008885687236907 L 0.453438880723034 -4.024754975747591 M 0.8169717981311608 -3.9290212524592665 Q 0.7179213212454587 -3.962389402373743 0.7543696080751177 -4.070583000202741 Q 0.7615565942105433 -4.091916949070431 0.7730665702248726 -4.113491361047344 Q 0.7845765462392018 -4.135065773024256 0.8014200094704536 -4.154843438467313 Q 0.9540541058238216 -4.340975051060099 1.0556120263968203 -4.456079980584809 L 0.9565615495111179 -4.4894481304992855 L 0.9861416267533781 -4.516812633461004 L 1.0806205431674325 -4.484984552004119 L 1.1531279576177433 -4.5793337486818375 Q 1.1919322306385087 -4.629042697849265 1.209240405121165 -4.635089466910336 Q 1.2224741603176619 -4.63911524129537 1.2605704975813936 -4.6262813374821095 L 1.3255828415224817 -4.602683169432753 Q 1.2863787171184793 -4.587044783144023 1.2588196345522569 -4.555605860896145 L 1.1690040456192898 -4.455209895157355 L 1.284816910901034 -4.416194827565044 L 1.2552368336587738 -4.388830324603325 L 1.1439955288486776 -4.426305323738045 Q 1.125114855974346 -4.40551716095697 1.1069961098452894 -4.384472320099629 Q 1.0888773637162328 -4.363427479242288 1.0679594811988218 -4.341628819123194 Q 1.0123441748808883 -4.282312037761066 0.9684387702689027 -4.227534386936503 Q 0.9168816682700869 -4.165153683626235 0.8834270974332856 -4.118732904549129 Q 0.8499725265964846 -4.072312125472023 0.8366576965647778 -4.042861767966099 Q 0.8054078311285908 -3.9702463715393064 0.8511234358450688 -3.9548456869633943 Q 0.8937913335804482 -3.940471714692543 0.9855468423542433 -4.011368678024283 L 0.9966460981054087 -3.983874455326228 Q 0.8885929121869763 -3.9048935132903377 0.8169717981311608 -3.9290212524592665 M 0.9827447509496332 -3.871355494186591 Q 1.0923096106155228 -3.953305167074248 1.2967977076326722 -4.106111630086468 Q 1.5012858046498216 -4.258918093098687 1.8012990049765345 -4.480388383543532 Q 1.8050830644021085 -4.483785078152078 1.8081684166651217 -4.4875795469440325 Q 1.811253768928135 -4.491374015735987 1.8136404140285876 -4.49556625871135 Q 1.8247780911640332 -4.515130059263047 1.8207378931316596 -4.547035268866797 L 1.8961982666882042 -4.5040756570586495 Q 1.9353258677915979 -4.481800302787758 1.9249837390229696 -4.463633916561182 Q 1.919414900455247 -4.453852016285334 1.899892737369074 -4.439061505934543 Q 1.803271152713541 -4.370096745522766 1.6480830787994896 -4.256760454058616 Q 1.4928950048854381 -4.143424162594465 1.2777430273877468 -3.9865118884447583 Q 1.3154107579677332 -4.00392436377004 1.3622585228652644 -4.017960963219538 Q 1.4091062877627956 -4.031997562669035 1.4637366726527503 -4.043453834609567 Q 1.5024144527408303 -4.052890007533911 1.5454885675791685 -4.0570478655033035 Q 1.588562682417507 -4.061205723472696 1.6360331320061037 -4.060085266487137 Q 1.7447336732932335 -4.059262585573901 1.783861274396627 -4.0369872313030095 Q 1.7936431746724755 -4.0314183927352865 1.7970398692810214 -4.027634333309713 Q 1.7524058858081908 -4.0012355060754 1.7128565348817983 -3.975642636574286 Q 1.673307183955406 -3.9500497670731716 1.638240599617148 -3.9274558179971946 Q 1.468089151676553 -3.8170872188590383 1.42409867162755 -3.76256724144655 Q 1.4079732031499232 -3.743992671670185 1.3992221711149302 -3.7286211140938517 Q 1.3777423652108562 -3.690890927315579 1.4056906517132803 -3.674979959979228 Q 1.4434208384915526 -3.653500154075154 1.5610036380239034 -3.710531688984667 L 1.5748049175993635 -3.6860217345563133 Q 1.4392910517144748 -3.6169945179462513 1.3680229211332937 -3.657567484653946 Q 1.2799858186506583 -3.707687031763452 1.331696462493799 -3.79851896289633 Q 1.3738605259351293 -3.872581922127753 1.5474294872170322 -3.9662023680972167 Q 1.5741324043373248 -3.9806055136309806 1.5828834363723179 -3.9959770712073137 Q 1.5924300167741285 -4.012746043108768 1.5770584591977954 -4.021497075143761 Q 1.5616869016214623 -4.030248107178754 1.5280833447134394 -4.028099938859167 Q 1.4944797878054166 -4.025951770539581 1.4434397799325218 -4.014301816190535 Q 1.362493842739302 -3.9956231527503605 1.2763008186902733 -3.9531020139452493 Q 1.1901077946412446 -3.910580875140138 1.0986676837364067 -3.8442172609700904 Q 1.076952557958295 -3.828824884660995 1.0412216514634476 -3.8473161795063127 Q 0.9935158820008131 -3.8707744469610494 0.9827447509496332 -3.871355494186591 M 1.8065820219915418 -3.2515635310811923 Q 1.73908172160801 -3.3666997492930695 1.8290093095744775 -3.423149053651345 Q 1.8678504434290866 -3.445920239322898 1.9130070965322779 -3.438842584872584 Q 1.9595509329874194 -3.4325781870533962 1.9806956053967184 -3.396511419902688 Q 1.9961474813881295 -3.3701549362156316 1.984524883961574 -3.3391094465422473 Q 1.9768245066805656 -3.314091350097271 1.95185520634546 -3.299452730736987 Q 1.883883222099894 -3.259603155811769 1.846473417068057 -3.323413590001484 Q 1.8269552579210115 -3.356705990448292 1.8451791752967988 -3.3860296999592063 Q 1.7993068577822215 -3.3498165444788865 1.8424094592319467 -3.2762958268255193 Q 1.8521685388054694 -3.259649626602115 1.8644626551725894 -3.248217562975993 Q 2.0012291815729455 -3.1103148097316113 2.291301541099223 -3.105161095841822 L 2.353343724336122 -3.104254897630003 Q 2.4182020944282185 -3.2447972558462954 2.501433095545238 -3.2935926537139086 Q 2.5555332462713007 -3.3253096623278573 2.6033689991781763 -3.3104828344866646 Q 2.651778678805875 -3.297856446628549 2.6834956874198235 -3.2437562959024864 Q 2.7119596695092647 -3.195204878584225 2.7208125508709684 -3.1165164951239226 L 2.899619790901522 -3.1262825506560183 Q 3.0453251642857007 -3.135281820347333 3.1372649837543367 -3.1183521447428038 Q 3.250969873143442 -3.099270825265068 3.3280828647708853 -3.0345053967536635 Q 3.313300182400514 -3.0724380070769293 3.2930164000724504 -3.111805434202253 Q 3.2727326177443863 -3.151172861327578 3.2475216621794525 -3.194175545238038 Q 3.0986956986832315 -3.4480300986449475 2.9736516872486964 -3.5182466683444122 Q 2.9325125211912693 -3.540727402676267 2.8933588632615512 -3.55505233530168 Q 2.8542052053318328 -3.5693772679270928 2.819237495512901 -3.57497247212524 Q 2.7479148925230863 -3.585349623890408 2.706299391964577 -3.5609519249566013 Q 2.6577479746463153 -3.53248794286716 2.6799940297069154 -3.469107372388182 Q 2.6872180724868406 -3.4472470355674965 2.6986036653226173 -3.427826468640192 Q 2.7774895585419257 -3.2932696835010105 2.955964527081484 -3.2431939957792846 Q 2.9647662870137923 -3.2408982888959907 2.9660582034655265 -3.2323358588739852 Q 2.9679240466380836 -3.225973868835057 2.9609881298783316 -3.2219075856794226 Q 2.956826579822481 -3.219467815786042 2.954626139839404 -3.2200417425068655 Q 2.9138703667023673 -3.225971543515533 2.871583347203293 -3.244051397881233 Q 2.8292963277042187 -3.2621312522469337 2.785478061843108 -3.292361159969667 Q 2.6978415301208853 -3.3528209754151335 2.652299158777779 -3.4305032431243516 Q 2.616515867008196 -3.491539310610166 2.618235321851142 -3.552194310495114 Q 2.6192367869631776 -3.623612180385145 2.676111304393141 -3.6569557022613477 Q 2.7274370884153027 -3.6870461976130424 2.801199461298498 -3.672507495792024 Q 3.02224725003778 -3.6324790136639944 3.245079566966548 -3.2523907752296055 Q 3.280862858736131 -3.191354707743791 3.3104514588720457 -3.131346828744472 Q 3.3400400590079613 -3.0713389497451526 3.3628600407893847 -3.010158819249251 Q 3.4038086730463784 -2.9689267116111324 3.4249533454556778 -2.9328599444604238 Q 3.4664294336431487 -2.8621135935109567 3.4317498498443912 -2.8417821777327847 Q 3.415103649620987 -2.832023098159262 3.3926205899696082 -2.8449376120375516 Q 3.370137530318229 -2.857852125915841 3.354685654326818 -2.884208609602897 Q 3.345739831384422 -2.8994676264743506 3.341457453713657 -2.925848508216342 Q 3.337175076042892 -2.952229389958333 3.338130070364582 -2.99193257655394 Q 3.2741244517353856 -3.0438787580872715 3.1878774286846374 -3.0510981502281482 Q 3.1567366721110366 -3.0533450610015715 3.1059360186998273 -3.047794002274246 Q 3.0551353652886184 -3.0422429435469205 2.986061998391752 -3.0297071719499726 Q 2.8998637714508737 -3.0145875674495572 2.8310773679144194 -3.0031520158441483 Q 2.7622909643779643 -2.9917164642387393 2.711490310966755 -2.986165405511414 Q 2.699391379039117 -2.9082414825723677 2.6635662671182363 -2.8294555068923244 Q 2.6367334489300975 -2.767125197635252 2.605260420865501 -2.709530365154854 Q 2.573787392800904 -2.651935532674456 2.537913484770153 -2.595488553635705 Q 2.6796455165793898 -2.67485310667562 2.91523200713969 -2.708586997430786 Q 3.0187944240348816 -2.7227028114996417 3.117693395658443 -2.725696760697959 Q 3.2165923672820034 -2.7286907098962763 3.3108278936339337 -2.720562794224056 Q 3.581958346053514 -2.696848240828435 3.674237412971719 -2.5775992686705775 L 3.6783036961273528 -2.570663351910826 Q 3.6839964925452415 -2.5609530684471737 3.6770605757854895 -2.5568867852915393 Q 3.6673502923218373 -2.551193988873651 3.662470752535076 -2.559517088985353 Q 3.596071834802845 -2.64733950386896 3.3694288418654157 -2.6524002761780574 Q 3.269070655384861 -2.6550747253426925 3.15531929520541 -2.6424413615260045 Q 3.0415679350259595 -2.6298079977093156 2.916623841130689 -2.60129289419048 Q 2.67228438674795 -2.5475157136773157 2.54188915166462 -2.4710695903513877 Q 2.4239785667488416 -2.401942776705602 2.4573220886250446 -2.3450682592756387 Q 2.47928001766547 -2.3076143087729797 2.5803561938769355 -2.2941769896032618 Q 2.6778447467533733 -2.2805003405232402 2.869949893582606 -2.2961985223835275 Q 2.8870747536266173 -2.2987823552869955 2.8947286601172793 -2.2920857684375466 L 2.895541916748406 -2.2906985850855968 Q 2.8987949432729136 -2.2851498516777955 2.8890846598092614 -2.279457055259907 Q 2.8807615596975595 -2.274577515473146 2.862823443022422 -2.273380865921628 Q 2.6627297928920064 -2.2585912075926844 2.6266142296314277 -2.2597855318246776 Q 2.477177169902134 -2.263510242211219 2.4281912382340876 -2.327989870021974 Q 2.42355102835763 -2.3327253467986484 2.421111258464249 -2.3368868968544994 Q 2.4186714885708684 -2.3410484469103503 2.415418462046361 -2.3465971803181516 Q 2.3641832942853664 -2.433989731491022 2.4487038865345956 -2.528276379272347 Q 2.4634842435854423 -2.544397448884798 2.4824017526372044 -2.5741277867112755 Q 2.501319261688967 -2.6038581245377532 2.526335032814419 -2.6502114271924615 Q 2.5552730240854187 -2.7025921230755783 2.577562061957078 -2.752006755794599 Q 2.5998510998287374 -2.80142138851362 2.6141040009491068 -2.8470567014374177 Q 2.625487268465359 -2.88168981444583 2.6334025776017356 -2.9142897858764245 Q 2.641317886738112 -2.9468897573070194 2.646339164215436 -2.979657027142874 Q 2.564637084140929 -2.9727652558539446 2.489344627555459 -2.972427171064138 Q 2.414052170969989 -2.9720890862743317 2.3443560812424287 -2.979691871335599 Q 2.306188791647908 -2.860389452428822 2.309925128632071 -2.739558112479533 Q 2.3112170450838048 -2.7309956824575274 2.3018413584306727 -2.7310909493577435 Q 2.295240038481441 -2.732812729520214 2.292560938677757 -2.7405619029110926 Q 2.2788749883196378 -2.8592880697775214 2.3093883714234966 -2.9852870755337464 Q 2.2096993785639816 -2.9995376513345913 2.1074265528009994 -3.030913087179447 Q 2.0051537270380173 -3.062288523024303 1.9294523168174593 -3.1166977098461883 Q 1.8537509065969013 -3.1711068966680735 1.8065820219915418 -3.2515635310811923 M 2.3994089009706565 -3.1051657464808704 Q 2.453462580906373 -3.105168071800395 2.5156720625485316 -3.107155905247628 Q 2.5778815441906904 -3.1091437386948617 2.64685964418734 -3.112303823638677 Q 2.641213318559798 -3.1537287903967535 2.6225084160438796 -3.185634007491611 Q 2.576966044700774 -3.2633162752008293 2.4978965936396054 -3.2169606472265966 Q 2.4479579929693935 -3.1876834085060284 2.3994089009706565 -3.1051657464808704 M 2.463618361756774 -1.9961663004004087 Q 2.452906148811518 -2.057956618718212 2.484824507669926 -2.1091857017061586 Q 2.502885565676859 -2.136796618526688 2.5304109888751976 -2.152176439258815 Q 2.557936412073536 -2.1675562599909424 2.5959612233460305 -2.1741483910341772 Q 2.7417229998905923 -2.19941822669991 2.9067754909357104 -2.1040014878759425 Q 3.046350776550256 -2.0237517449130022 3.065303153299556 -1.9144304125045806 Q 3.0716206122159893 -1.87798996836844 3.057002960608565 -1.8493440286651597 Q 3.0394912468552344 -1.8185643775719225 3.004635169855448 -1.8125215907822907 Q 2.9174949773559815 -1.7974146238082112 2.8103037196000096 -1.8979664577879691 Q 2.7770520193655592 -1.9297374757684849 2.746017705774503 -1.9863726893015157 Q 2.7123003365398874 -2.0490706992531607 2.7070815661306598 -2.0791736748438856 Q 2.649367673719406 -2.0920159624415913 2.5891617225379564 -2.0815784216231368 Q 2.4861778586749503 -2.0637247333810427 2.49936212076142 -1.9876751108360535 Q 2.516666464749911 -1.8878599812457557 2.661691536905013 -1.8232429031440078 L 2.6722964282303425 -1.8185534673594006 L 2.6658752844314897 -1.7896965211537736 L 2.6555450652329617 -1.7928015898020269 Q 2.5694599052452287 -1.8186771618708029 2.522581920290633 -1.872565654135819 Q 2.4757039353360377 -1.9264541464008356 2.463618361756774 -1.9961663004004087 M 2.7356638402094853 -2.0743368981813863 Q 2.74033326636511 -2.0474026568633694 2.766001468669047 -2.0028930361675674 Q 2.781761464779149 -1.9778814997371605 2.7986938198354028 -1.9555211861380863 Q 2.8156261748916567 -1.9331608725390117 2.834765911776813 -1.916895188170779 Q 2.922753767023174 -1.842389913504179 3.0035564909772248 -1.8563981919710528 Q 3.0384125679770113 -1.8624409787606846 3.0340178139481884 -1.8877908529423475 Q 3.0263269943977478 -1.9321531327602577 2.9013493507616435 -2.0035096827831325 Q 2.837931009312014 -2.039842805299346 2.7356638402094853 -2.0743368981813863 M 2.5064067447928693 -1.6762907322890224 Q 2.5049774893867043 -1.7229008240394572 2.551587581137139 -1.724330079445622 Q 2.580517982913271 -1.725217203490828 2.63093397978008 -1.7074580937179276 L 3.4376884989873777 -1.4200978482652875 Q 3.4426088019550893 -1.417031213186585 3.4474305355844446 -1.4171790671941191 Q 3.4522522692138 -1.4173269212016535 3.455466758300037 -1.4174254905400097 Q 3.4795754264468135 -1.4181647605776813 3.504699923106571 -1.438240249801952 L 3.5073612952421884 -1.3514490444735563 Q 3.5087412659791752 -1.30644619726624 3.4878470869186358 -1.3058054965669246 Q 3.478203619659925 -1.305509788551856 3.45379924349808 -1.3144139857728951 L 2.650259213377019 -1.6018728005638916 Q 2.5981866872979134 -1.6211898702107321 2.5580055737199525 -1.6199577534812797 Q 2.5210389492282284 -1.6188242060901834 2.508870978251774 -1.5959285051331005 L 2.5064067447928693 -1.6762907322890224 M 2.009272802342084 -1.5714877876100917 Q 2.0187934666110525 -1.5815225316465678 2.0325180126867886 -1.5925933460256 Q 2.046242558762525 -1.6036641604046324 2.0646161469072024 -1.6189560864667667 Q 2.1027332637357428 -1.6477248377896758 2.1489163631736488 -1.6412700139881684 Q 2.1823592972493735 -1.6365958312353528 2.2386116004764225 -1.6092501183418821 Q 2.2825688986034636 -1.5868700878376487 2.3699270445298297 -1.5381287251535 Q 2.457285190456196 -1.4893873624693514 2.587599023919714 -1.4110996262647424 Q 2.626556179904851 -1.3877948154834958 2.6799745418643184 -1.3575979314461097 Q 2.733392903823786 -1.3274010474087237 2.8030875725589426 -1.2916820306543846 Q 2.8197149794075953 -1.282863566531343 2.8419162086022025 -1.2732660719494988 Q 2.8641174377968093 -1.2636685773676548 2.8934850100076432 -1.2530694721959215 Q 2.9105575771184693 -1.2474360494134253 2.9253526532894294 -1.242932757162695 Q 2.9401477294603895 -1.2384294649119645 2.9512953741522976 -1.2368714039943594 Q 3.007033597611839 -1.2290810994063333 3.03581817054983 -1.2607778521860338 L 3.037651909488775 -1.180963698293984 Q 3.0374637891103555 -1.1680009528007167 3.0363508884549235 -1.1600383494493536 Q 3.035237987799491 -1.1520757460979905 3.0350154076684044 -1.1504832254277177 Q 3.0312315454399346 -1.1234103740330834 2.975493321980393 -1.1312006786211097 Q 2.897459809137035 -1.1421071050443463 2.779475440526192 -1.2040589340367236 Q 3.0270556208395445 -1.0005981620436732 3.013255652712184 -0.9018618804867711 Q 3.00657824877959 -0.8540862603785927 2.9627587896632184 -0.8309853915908473 Q 2.9259771536211963 -0.8117717642895739 2.875016492172473 -0.8188943284843406 Q 2.8049455826804777 -0.828687854252145 2.7211063482912867 -0.8793728376795296 Q 2.6361197534939955 -0.9334654425785459 2.5783941304697584 -0.9967369307423597 Q 2.4702377473793873 -1.117389444403737 2.4882667379973906 -1.2463836186958188 Q 2.49650220284759 -1.3053068834959056 2.5336600796464497 -1.3504460017837137 Q 2.461448109964007 -1.3913877408110435 2.3860683288173528 -1.427089527689049 Q 2.310688547670699 -1.4627913145670544 2.2309935946517334 -1.496660770767367 Q 2.071826268744889 -1.565992203838265 2.009272802342084 -1.5714877876100917 M 2.529534436413809 -1.2860774345795498 Q 2.5157344682864484 -1.1873411530226479 2.667625569372774 -1.042716088186764 Q 2.815184268710455 -0.9019438050846851 2.913920550267357 -0.8881438369573245 Q 2.9648812117160808 -0.8810212727625576 2.970890875255415 -0.9240193308599182 Q 2.979348920236701 -0.9845351163302775 2.8876662833692306 -1.0720361955523514 Q 2.8359000425165783 -1.1198620970282793 2.752582798702436 -1.1858986069543402 Q 2.6692655548882933 -1.2519351168804012 2.555767248651847 -1.334367134455236 Q 2.5339860390355384 -1.317927847985002 2.529534436413809 -1.2860774345795498 M 2.3654960350058523 -0.7401869597553754 Q 2.386246257257671 -0.799366544246145 2.4390794838043415 -0.8285530265396344 Q 2.4683042919235225 -0.8438656074585084 2.4998350293008573 -0.8438858173952098 Q 2.531365766678192 -0.8439060273319114 2.5677839725186655 -0.8311366597923309 Q 2.7073870949071477 -0.7821874175572718 2.8050364615102716 -0.6184459138081957 Q 2.8878265584762426 -0.4803623107107783 2.8511146267999488 -0.37565996891941666 Q 2.8388773162411836 -0.3407591883222961 2.812155301627893 -0.3228650681984374 Q 2.781866379547081 -0.30451763679285726 2.7484830241933134 -0.3162228903708062 Q 2.6650246358088947 -0.3454860243156783 2.6204064070240336 -0.4855212010253245 Q 2.606847488445796 -0.5294669502963146 2.607339125553209 -0.5940458502943373 Q 2.608441565340532 -0.6652265082465881 2.6185506479760337 -0.6940575878702964 Q 2.574406987433451 -0.7333914786249784 2.5167448281860345 -0.7536096438959812 Q 2.4181121873680853 -0.7881933476490119 2.392573452288924 -0.7153569359680647 Q 2.359053862497525 -0.6197591456368214 2.454219598507604 -0.49267208482550245 L 2.461195922044459 -0.48341004196719506 L 2.441528976667118 -0.46133821169590394 L 2.4340205961494474 -0.4690828293108583 Q 2.3714507585021902 -0.5336213094354778 2.3567681431760725 -0.6035207792416591 Q 2.342085527849955 -0.6734202490478405 2.3654960350058523 -0.7401869597553754 M 2.6411545352281403 -0.6759080677363084 Q 2.632109566554271 -0.6501118385993062 2.6328395348066786 -0.5987364545097398 Q 2.6344165428362807 -0.5692158265070266 2.6383090615804594 -0.5414392793885272 Q 2.642201580324638 -0.5136627322700278 2.6509911489883784 -0.49013305954163244 Q 2.6915295762377474 -0.38220005003968427 2.7689182636487537 -0.35506514401807554 Q 2.802301619002521 -0.3433598904401266 2.8108145306955747 -0.3676386943337757 Q 2.825712126158419 -0.41012660114766153 2.751337032273561 -0.5333317716950806 Q 2.713656801199864 -0.5959590980808747 2.6411545352281403 -0.6759080677363084 M 2.280804958164036 -0.5151836122192827 Q 2.3328201778426005 -0.45049040174252053 2.4084599098794066 -0.3492563253778882 Q 2.4840996419162122 -0.2480222490132558 2.580949002086662 -0.11901711760146083 Q 2.602555813133813 -0.09194510599587968 2.613375112029166 -0.07192706444799069 Q 2.6241944109245194 -0.05190902290010174 2.6292148241445776 -0.03795994081202653 Q 2.6398593716408443 -0.007869323925699168 2.6181890627970508 0.02050549002284696 L 2.5973131197802712 0.04748221708823008 Q 2.5903544721080114 0.056474459443357716 2.585286416617854 0.06376675438724777 Q 2.580218361127696 0.07105904933113782 2.578438984702804 0.07744576269080383 Q 2.5803454324114496 0.041540366757404135 2.5363850867602333 -0.032446946602560256 Q 2.4924247411090166 -0.10643425996252465 2.405997496920413 -0.21472230638484918 Q 2.4168326891875442 -0.18822222909186176 2.4361835118826414 -0.14578715514326457 Q 2.4555343345777385 -0.10335208119466738 2.4782215164534342 -0.04237648159499885 Q 2.502719861497578 0.025176476135200465 2.5186390404718786 0.09155377849665669 Q 2.534558219446179 0.15793108085811292 2.511521610462778 0.19847560046984214 Q 2.49325119644146 0.23063159878259287 2.4643362349238758 0.2326969802090162 Q 2.435421273406291 0.2347623616354395 2.4088576226261926 0.21966941092217684 Q 2.376701624313442 0.20139899690085883 2.3658346453027557 0.16193484811767456 Q 2.3549676662920693 0.1224706993344904 2.3684718853513043 0.09870322232071815 Q 2.374032446140401 0.08891661413857654 2.384184450492494 0.08081405999589497 Q 2.394336454844587 0.0727115058532134 2.402724976143565 0.07747770081529637 Q 2.4097154105593805 0.08144952995036547 2.414418069879587 0.08782034993825394 Q 2.419120729199793 0.09419116992614218 2.4275092504987716 0.09895736488822515 Q 2.4484805537462178 0.11087285229343258 2.459601675324411 0.09129963592914958 Q 2.46357350445948 0.08430920151333421 2.46683039678119 0.07043954843891354 Q 2.4700872891029 0.05656989536449286 2.4616351943168104 0.025875557422016193 Q 2.4475271785109576 -0.03392438680890936 2.422313896653455 -0.10835656319771392 Q 2.397100614795952 -0.18278873958651853 2.356826131123508 -0.25838067797228836 Q 2.3165516474510635 -0.33397261635805814 2.255353540646506 -0.4020339349137401 Q 2.2383540665341295 -0.42093985673476286 2.256815125326312 -0.4566863946408536 Q 2.2810273896784556 -0.5058100803224258 2.280804958164036 -0.5151836122192827" fill="#431a10" fill-rule="nonzero"></path></g><g transform="matrix(1,0,0,1,0,0)"><path d=" M -0.6306134326171874 0.7945286025590295 Q -0.6306134326171874 0.7711286025590295 -0.6268109326171875 0.7506536025590295 Q -0.6230084326171874 0.7301786025590294 -0.6127709326171874 0.7114586025590295 Q -0.6025334326171874 0.6927386025590294 -0.5838134326171874 0.6754811025590295 Q -0.5650934326171875 0.6582236025590295 -0.5352584326171874 0.6418436025590295 Q -0.5177084326171875 0.6318986025590294 -0.4998659326171874 0.6231236025590294 Q -0.4820234326171874 0.6143486025590295 -0.4665209326171874 0.6044036025590295 Q -0.45101843261718744 0.5944586025590295 -0.4416584326171874 0.5824661025590294 Q -0.4322984326171874 0.5704736025590295 -0.4322984326171874 0.5546786025590295 Q -0.4322984326171874 0.5412236025590295 -0.4401959326171874 0.5286461025590294 Q -0.4480934326171874 0.5160686025590295 -0.46359593261718746 0.5081711025590294 Q -0.47909843261718743 0.5002736025590295 -0.5019134326171875 0.5002736025590295 Q -0.5194634326171874 0.5002736025590295 -0.5337959326171874 0.5049536025590294 Q -0.5481284326171875 0.5096336025590295 -0.5595359326171874 0.5169461025590294 Q -0.5709434326171874 0.5242586025590295 -0.5794259326171874 0.5321561025590295 Q -0.5879084326171874 0.5400536025590295 -0.5937584326171874 0.5464886025590294 L -0.6259334326171875 0.5102186025590294 Q -0.6212534326171875 0.5049536025590294 -0.6101384326171875 0.49588610255902943 Q -0.5990234326171874 0.4868186025590295 -0.5820584326171874 0.47745860255902944 Q -0.5650934326171875 0.46809860255902946 -0.5425709326171875 0.46137110255902947 Q -0.5200484326171875 0.45464360255902947 -0.4931384326171874 0.45464360255902947 Q -0.45686843261718746 0.45464360255902947 -0.43083593261718744 0.46722110255902943 Q -0.40480343261718743 0.47979860255902945 -0.39076343261718743 0.5011511025590294 Q -0.37672343261718744 0.5225036025590295 -0.37672343261718744 0.5488286025590294 Q -0.37672343261718744 0.5716436025590295 -0.3863759326171874 0.5886086025590295 Q -0.3960284326171874 0.6055736025590295 -0.4109459326171874 0.6184436025590294 Q -0.4258634326171874 0.6313136025590295 -0.44195093261718743 0.6403811025590295 Q -0.4580384326171874 0.6494486025590295 -0.4709084326171874 0.6558836025590294 Q -0.49723343261718744 0.6687536025590295 -0.5159534326171874 0.6792836025590294 Q -0.5346734326171874 0.6898136025590295 -0.5466659326171874 0.7000511025590295 Q -0.5586584326171874 0.7102886025590295 -0.5659709326171874 0.7214036025590295 Q -0.5732834326171874 0.7325186025590295 -0.5767934326171874 0.7477286025590295 L -0.3702884326171874 0.7477286025590295 L -0.3702884326171874 0.7945286025590295 L -0.6306134326171874 0.7945286025590295 M -0.015209143066406194 0.6231236025590294 Q -0.015209143066406194 0.6746036025590294 -0.03451414306640621 0.7146761025590295 Q -0.05381914306640617 0.7547486025590294 -0.08716414306640619 0.7775636025590295 Q -0.1205091430664062 0.8003786025590295 -0.1632141430664062 0.8003786025590295 Q -0.20591914306640619 0.8003786025590295 -0.2392641430664062 0.7775636025590295 Q -0.2726091430664062 0.7547486025590294 -0.2919141430664062 0.7146761025590295 Q -0.3112191430664062 0.6746036025590294 -0.3112191430664062 0.6231236025590294 Q -0.3112191430664062 0.5716436025590295 -0.2919141430664062 0.5315711025590295 Q -0.2726091430664062 0.49149860255902944 -0.2392641430664062 0.46839110255902944 Q -0.20591914306640619 0.44528360255902943 -0.1632141430664062 0.44528360255902943 Q -0.1205091430664062 0.44528360255902943 -0.08716414306640619 0.46839110255902944 Q -0.05381914306640617 0.49149860255902944 -0.03451414306640621 0.5315711025590295 Q -0.015209143066406194 0.5716436025590295 -0.015209143066406194 0.6231236025590294 M -0.06727414306640617 0.6231236025590294 Q -0.06727414306640617 0.5845136025590294 -0.07955914306640621 0.5552636025590294 Q -0.0918441430664062 0.5260136025590294 -0.1134891430664062 0.5096336025590295 Q -0.1351341430664062 0.49325360255902945 -0.1632141430664062 0.49325360255902945 Q -0.1918791430664062 0.49325360255902945 -0.21352414306640619 0.5096336025590295 Q -0.23516914306640618 0.5260136025590294 -0.24745414306640617 0.5552636025590294 Q -0.2597391430664062 0.5845136025590294 -0.2597391430664062 0.6231236025590294 Q -0.2597391430664062 0.6617336025590295 -0.24745414306640617 0.6906911025590294 Q -0.23516914306640618 0.7196486025590294 -0.21352414306640619 0.7360286025590295 Q -0.1918791430664062 0.7524086025590294 -0.1632141430664062 0.7524086025590294 Q -0.1351341430664062 0.7524086025590294 -0.1134891430664062 0.7360286025590295 Q -0.0918441430664062 0.7196486025590294 -0.07955914306640621 0.6906911025590294 Q -0.06727414306640617 0.6617336025590295 -0.06727414306640617 0.6231236025590294 M 0.04154385498046877 0.7945286025590295 Q 0.04154385498046877 0.7711286025590295 0.04534635498046877 0.7506536025590295 Q 0.04914885498046877 0.7301786025590294 0.05938635498046877 0.7114586025590295 Q 0.06962385498046877 0.6927386025590294 0.08834385498046878 0.6754811025590295 Q 0.10706385498046878 0.6582236025590295 0.13689885498046878 0.6418436025590295 Q 0.15444885498046879 0.6318986025590294 0.17229135498046877 0.6231236025590294 Q 0.19013385498046878 0.6143486025590295 0.20563635498046878 0.6044036025590295 Q 0.22113885498046879 0.5944586025590295 0.23049885498046876 0.5824661025590294 Q 0.23985885498046877 0.5704736025590295 0.23985885498046877 0.5546786025590295 Q 0.23985885498046877 0.5412236025590295 0.23196135498046877 0.5286461025590294 Q 0.22406385498046877 0.5160686025590295 0.20856135498046877 0.5081711025590294 Q 0.19305885498046876 0.5002736025590295 0.17024385498046876 0.5002736025590295 Q 0.15269385498046878 0.5002736025590295 0.13836135498046875 0.5049536025590294 Q 0.12402885498046877 0.5096336025590295 0.11262135498046877 0.5169461025590294 Q 0.10121385498046877 0.5242586025590295 0.09273135498046878 0.5321561025590295 Q 0.08424885498046877 0.5400536025590295 0.07839885498046878 0.5464886025590294 L 0.04622385498046877 0.5102186025590294 Q 0.050903854980468774 0.5049536025590294 0.062018854980468774 0.49588610255902943 Q 0.07313385498046877 0.4868186025590295 0.09009885498046877 0.47745860255902944 Q 0.10706385498046878 0.46809860255902946 0.12958635498046878 0.46137110255902947 Q 0.15210885498046878 0.45464360255902947 0.17901885498046877 0.45464360255902947 Q 0.21528885498046876 0.45464360255902947 0.24132135498046878 0.46722110255902943 Q 0.26735385498046876 0.47979860255902945 0.28139385498046876 0.5011511025590294 Q 0.29543385498046876 0.5225036025590295 0.29543385498046876 0.5488286025590294 Q 0.29543385498046876 0.5716436025590295 0.2857813549804688 0.5886086025590295 Q 0.2761288549804688 0.6055736025590295 0.26121135498046877 0.6184436025590294 Q 0.24629385498046877 0.6313136025590295 0.23020635498046876 0.6403811025590295 Q 0.2141188549804688 0.6494486025590295 0.20124885498046877 0.6558836025590294 Q 0.17492385498046878 0.6687536025590295 0.15620385498046876 0.6792836025590294 Q 0.13748385498046878 0.6898136025590295 0.12549135498046876 0.7000511025590295 Q 0.11349885498046877 0.7102886025590295 0.10618635498046877 0.7214036025590295 Q 0.09887385498046877 0.7325186025590295 0.09536385498046877 0.7477286025590295 L 0.3018688549804688 0.7477286025590295 L 0.3018688549804688 0.7945286025590295 L 0.04154385498046877 0.7945286025590295 M 0.53117314453125 0.8688236025590295 L 0.53117314453125 0.7699586025590295 L 0.34338814453125 0.7699586025590295 L 0.34338814453125 0.7243286025590294 L 0.54755314453125 0.46049360255902944 L 0.58265314453125 0.46049360255902944 L 0.58265314453125 0.7231586025590294 L 0.63413314453125 0.7231586025590294 L 0.63413314453125 0.7699586025590295 L 0.58265314453125 0.7699586025590295 L 0.58265314453125 0.8688236025590295 L 0.53117314453125 0.8688236025590295 M 0.39662314453125 0.7231586025590294 L 0.53643814453125 0.7231586025590294 L 0.53643814453125 0.5400536025590295 L 0.39662314453125 0.7231586025590294" fill="#3e7742" fill-rule="nonzero"></path></g><g transform="matrix(1,0,0,1,0,0)"><g clip-path="url(#SvgjsClipPath1001)"><g clip-path="url(#SvgjsClipPath1000906d6cbe-f902-49fc-ac2c-7c7a9bd32fde)"><path d=" M -0.8015955397829018 -1.0263725453039727 L -0.8015955397829018 -1.4433196758870206 C -0.8015955397829018 -1.4961721290595196 -0.7751693131966522 -1.5431520874350744 -0.7281893548210976 -1.5666420666228518 L -0.03523496878166599 -1.9659717128150662 C 0.00880874219541683 -1.992397939401316 0.06459744276638801 -1.992397939401316 0.10864115374347039 -1.9659717128150662 L 0.8015955397829022 -1.5666420666228515 C 0.8456392507599846 -1.540215840036602 0.8750017247447066 -1.4932358816610471 0.8750017247447066 -1.4433196758870204 L 0.8750017247447066 -1.0322450401009169 C 1.0335590842622038 -1.0469262770932777 1.186243948982756 -1.0704162562810549 1.3389288137033089 -1.1085874724611933 C 1.3389288137033089 -1.123268709453554 1.3389288137033089 -1.1350136990474429 1.3389288137033089 -1.1496949360398037 C 1.3389288137033089 -1.8896292804547898 0.7399343444149871 -2.4886237497431125 0 -2.4886237497431125 C -0.7399343444149868 -2.4886237497431125 -1.3389288137033084 -1.8866930330563179 -1.3389288137033084 -1.1467586886413317 C -1.3389288137033084 -1.132077451648971 -1.3389288137033084 -1.120332462055082 -1.3389288137033084 -1.1056512250627213 C -1.1833077015842837 -1.067480008882583 -1.021814094668314 -1.0439900296948057 -0.8603204877523449 -1.029308792702445 C -0.8397667559630397 -1.029308792702445 -0.8192130241737348 -1.0263725453039727 -0.8015955397829018 -1.0263725453039727 Z" fill="#b88059" transform="matrix(1,0,0,1,0,0)" fill-rule="nonzero"></path></g><g clip-path="url(#SvgjsClipPath1000906d6cbe-f902-49fc-ac2c-7c7a9bd32fde)"><path d=" M -1.9056245616084369 -0.9735200921314737 C -1.890943324616076 -0.8824964227788363 -1.8439633662405215 -0.8296439696063376 -1.785238418271078 -0.7885365060277272 C -1.6619160275352471 -0.7004490840735624 -1.5180399050101108 -0.665214115291896 -1.3712275350865024 -0.650532878299535 C -1.3271838241094198 -0.6446603835025908 -1.2860763605308096 -0.6417241361041188 -1.242032649553727 -0.6387878887056464 C -1.2655226287415042 -0.7004490840735615 -1.2860763605308096 -0.7621102794414776 -1.3036938449216424 -0.8267077222078651 C -1.5062949154162222 -0.8590064435910592 -1.7088959859108017 -0.9059864019666137 -1.9056245616084369 -0.9735200921314737 Z" fill="#431a10" transform="matrix(1,0,0,1,0,0)" fill-rule="nonzero"></path></g><g clip-path="url(#SvgjsClipPath1000906d6cbe-f902-49fc-ac2c-7c7a9bd32fde)"><path d=" M -1.6149360691596923 -0.6006166725255082 C -1.4769324414315004 -0.4215055812187063 -1.3036938449216424 -0.3950793546324567 -1.1187102588178959 -0.4038880968278731 C -1.1568814749980343 -0.45967679739884426 -1.189180196381228 -0.5184017453682876 -1.2156064229674777 -0.5800629407362028 C -1.3477375558987248 -0.5859354355331476 -1.4798686888299724 -0.5918079303300916 -1.6149360691596923 -0.6006166725255082 Z" fill="#431a10" transform="matrix(1,0,0,1,0,0)" fill-rule="nonzero"></path></g><g clip-path="url(#SvgjsClipPath1000906d6cbe-f902-49fc-ac2c-7c7a9bd32fde)"><path d=" M -1.3271838241094198 -0.33341815926454066 C -1.330120071507892 -0.32167316967065185 -1.330120071507892 -0.31286442747523546 -1.333056318906364 -0.3011194378813471 C -1.2244151651628938 -0.21009576852870993 -1.1010927744270629 -0.20422327373176552 -0.9748341362927595 -0.2218407581225983 C -1.0130053524728977 -0.26294822170120913 -1.0482403212545637 -0.3040556852798191 -1.0805390426377577 -0.34809939625690145 C -1.1627539697949785 -0.33929065406148506 -1.2449688969521993 -0.3363544066630131 -1.3271838241094198 -0.33341815926454066 Z" fill="#431a10" transform="matrix(1,0,0,1,0,0)" fill-rule="nonzero"></path></g><g clip-path="url(#SvgjsClipPath1000906d6cbe-f902-49fc-ac2c-7c7a9bd32fde)"><path d=" M -1.1157740114194237 -0.15724331535621028 C -1.0746665478408133 -0.07796463559746192 -0.9748341362927595 -0.06328339860510113 -0.8338942611660953 -0.0867733777928783 C -0.8691292299477615 -0.11613585177760033 -0.9043641987294273 -0.1454983257623219 -0.9366629201126213 -0.17779704714551547 C -0.9953878680820649 -0.1719245523485715 -1.0570490634499803 -0.1660520575516271 -1.1157740114194237 -0.15724331535621028 Z" fill="#431a10" transform="matrix(1,0,0,1,0,0)" fill-rule="nonzero"></path></g><g clip-path="url(#SvgjsClipPath1000906d6cbe-f902-49fc-ac2c-7c7a9bd32fde)"><path d=" M -0.8984917039324831 -0.042729666815796374 C -0.8250855189706789 0.021867775950591195 -0.7516793340088748 0.033612765544480006 -0.6753369016485982 0.018931528552119214 C -0.7135081178287366 -0.001622203237186426 -0.7487430866104026 -0.025112182424963603 -0.7839780553920688 -0.051538409011213204 C -0.8221492715722067 -0.042729666815796374 -0.8603204877523449 -0.03685717201885197 -0.8984917039324831 -0.042729666815796374 Z" fill="#431a10" transform="matrix(1,0,0,1,0,0)" fill-rule="nonzero"></path></g><g clip-path="url(#SvgjsClipPath1000906d6cbe-f902-49fc-ac2c-7c7a9bd32fde)"><path d=" M 1.3712275350865029 -0.6475966309010628 C 1.518039905010112 -0.6622778678934238 1.66485227493372 -0.6975128366750896 1.7852384182710783 -0.785600258629255 C 1.8439633662405224 -0.8267077222078651 1.8909433246160758 -0.8795601753803644 1.905624561608438 -0.9705838447330015 C 1.70595973851233 -0.9030501545681417 1.5062949154162224 -0.8560701961925872 1.3007575975231709 -0.8237714748093932 C 1.2860763605308105 -0.7591740320430052 1.265522628741505 -0.6945765892766171 1.2390964021552557 -0.635851641307174 C 1.2831401131323386 -0.6387878887056464 1.327183824109421 -0.6446603835025908 1.3712275350865029 -0.6475966309010628 Z" fill="#431a10" transform="matrix(1,0,0,1,0,0)" fill-rule="nonzero"></path></g><g clip-path="url(#SvgjsClipPath1000906d6cbe-f902-49fc-ac2c-7c7a9bd32fde)"><path d=" M 1.6149360691596928 -0.6006166725255082 C 1.4798686888299732 -0.5947441777285638 1.3477375558987257 -0.5859354355331476 1.2156064229674777 -0.5800629407362028 C 1.186243948982756 -0.5184017453682876 1.1539452275995625 -0.45967679739884426 1.118710258817896 -0.4038880968278731 C 1.3007575975231709 -0.3950793546324567 1.4769324414315013 -0.41856933382023387 1.6149360691596928 -0.6006166725255082 Z" fill="#431a10" transform="matrix(1,0,0,1,0,0)" fill-rule="nonzero"></path></g><g clip-path="url(#SvgjsClipPath1000906d6cbe-f902-49fc-ac2c-7c7a9bd32fde)"><path d=" M 2.1581418378770434 -1.572514561419796 C 2.0289469523442683 -1.381658480519105 1.8615808506313551 -1.2818260689710514 1.673661017129136 -1.205483636610775 C 1.5650198633856665 -1.1614399256336925 1.4505062148452512 -1.1232687094535543 1.3359925663048369 -1.0968424828673047 C 1.333056318906365 -1.035181287499389 1.32718382410942 -0.9764563395299457 1.3183750819140037 -0.9177313915605023 C 1.4093987512666408 -0.9353488759513353 1.500422420619278 -0.9529663603421683 1.5914460899719156 -0.9764563395299457 C 1.767620933880246 -1.017563803108556 1.9349870355931587 -1.0968424828673047 2.0553731789305183 -1.243654852790913 C 2.1258431164938494 -1.3288060273466062 2.1610780852755167 -1.431574686293132 2.1581418378770434 -1.572514561419796 Z" fill="#431a10" transform="matrix(1,0,0,1,0,0)" fill-rule="nonzero"></path></g><g clip-path="url(#SvgjsClipPath1000906d6cbe-f902-49fc-ac2c-7c7a9bd32fde)"><path d=" M -1.6765972645276077 -1.205483636610775 C -1.8615808506313543 -1.2818260689710514 -2.028946952344268 -1.381658480519105 -2.1581418378770434 -1.572514561419796 C -2.1610780852755154 -1.431574686293132 -2.1258431164938494 -1.3288060273466062 -2.0553731789305174 -1.243654852790913 C -1.9320507881946865 -1.0939062354688323 -1.767620933880245 -1.017563803108556 -1.591446089971915 -0.9764563395299457 C -1.5004224206192776 -0.9559026077406405 -1.4093987512666404 -0.9353488759513353 -1.3183750819140032 -0.9177313915605023 C -1.32718382410942 -0.9764563395299457 -1.3330563189063644 -1.035181287499389 -1.3359925663048364 -1.0968424828673047 C -1.4534424622437232 -1.1232687094535543 -1.5650198633856656 -1.1585036782352203 -1.6765972645276077 -1.205483636610775 Z" fill="#431a10" transform="matrix(1,0,0,1,0,0)" fill-rule="nonzero"></path></g><g clip-path="url(#SvgjsClipPath1000906d6cbe-f902-49fc-ac2c-7c7a9bd32fde)"><path d=" M 1.1128377640209521 -0.15724331535621028 C 1.054112816051508 -0.1660520575516271 0.9924516206835929 -0.1719245523485715 0.9337266727141498 -0.17779704714551592 C 0.9014279513309558 -0.14549832576232236 0.8661929825492902 -0.11613585177760077 0.8309580137676242 -0.08677337779287875 C 0.9718978888942877 -0.06328339860510113 1.0717303004423413 -0.08090088299593434 1.1128377640209521 -0.15724331535621028 Z" fill="#431a10" transform="matrix(1,0,0,1,0,0)" fill-rule="nonzero"></path></g><g clip-path="url(#SvgjsClipPath1000906d6cbe-f902-49fc-ac2c-7c7a9bd32fde)"><path d=" M 0.8955554565340118 -0.042729666815796374 C 0.8573842403538734 -0.03685717201885197 0.8192130241737354 -0.042729666815796374 0.781041807993597 -0.05153840901121276 C 0.745806839211931 -0.02511218242496316 0.710571870430265 -0.0045584506356584065 0.6724006542501262 0.018931528552119214 C 0.748743086610403 0.03361276554448045 0.8221492715722074 0.02480402334906362 0.8955554565340118 -0.042729666815796374 Z" fill="#431a10" transform="matrix(1,0,0,1,0,0)" fill-rule="nonzero"></path></g><g clip-path="url(#SvgjsClipPath1000906d6cbe-f902-49fc-ac2c-7c7a9bd32fde)"><path d=" M 0.28775224505027275 -1.070416256281055 C 0.29068849244874473 -1.070416256281055 0.29068849244874473 -1.070416256281055 0.29362473984721715 -1.070416256281055 C 0.3024334820426331 -1.0733525036795275 0.3024334820426331 -1.0762887510779997 0.29656098724568913 -1.085097493273416 C 0.2701347606594391 -1.1144599672581377 0.24370853407318993 -1.1467586886413317 0.21728230748694077 -1.1761211626260535 C 0.2143460600884688 -1.1761211626260535 0.2143460600884688 -1.1761211626260535 0.21140981268999592 -1.173184915227581 C 0.2143460600884679 -1.1526311834382756 0.22021855488541275 -1.132077451648971 0.22609104968235672 -1.1115237198596655 C 0.23783603927624597 -1.061607514085639 0.23783603927624597 -1.061607514085639 0.28775224505027275 -1.070416256281055 Z" fill="#3e7742" transform="matrix(1,0,0,1,0,0)" fill-rule="nonzero"></path></g><g clip-path="url(#SvgjsClipPath1000906d6cbe-f902-49fc-ac2c-7c7a9bd32fde)"><path d=" M -0.8221492715722067 -0.6887040944796734 C -0.8192130241737345 -0.718066568464395 -0.8162767767752623 -0.7444927950506446 -0.8104042819783182 -0.76504652683995 C -0.9748341362927595 -0.7797277638323106 -1.1392639906072008 -0.797345248223144 -1.3007575975231702 -0.8237714748093932 C -1.2860763605308092 -0.7591740320430056 -1.265522628741504 -0.6945765892766176 -1.2390964021552544 -0.6358516413071744 C -1.1069652692240068 -0.6270428991117578 -0.9718978888942873 -0.6211704043148134 -0.8309580137676233 -0.6123616621193972 C -0.8309580137676233 -0.6387878887056464 -0.8280217663691514 -0.6652141152918956 -0.8221492715722067 -0.6887040944796734 Z" fill="#3e7742" transform="matrix(1,0,0,1,0,0)" fill-rule="nonzero"></path></g><g clip-path="url(#SvgjsClipPath1000906d6cbe-f902-49fc-ac2c-7c7a9bd32fde)"><path d=" M -0.9307904253156771 -0.56244545634537 C -1.0247503420667865 -0.5653817037438418 -1.1216465062163679 -0.5712541985407862 -1.2185426703659497 -0.5771266933377306 C -1.1891801963812276 -0.5154654979698154 -1.1568814749980338 -0.45674055000037184 -1.1216465062163679 -0.40095184942940065 C -1.0218140946683143 -0.40682434422634506 -0.9190454357217883 -0.418569333820233 -0.8192130241737348 -0.42444182861717783 C -0.8221492715722067 -0.5565729615484256 -0.8250855189706789 -0.5595092089468976 -0.9307904253156771 -0.56244545634537 Z" fill="#3e7742" transform="matrix(1,0,0,1,0,0)" fill-rule="nonzero"></path></g><g clip-path="url(#SvgjsClipPath1000906d6cbe-f902-49fc-ac2c-7c7a9bd32fde)"><path d=" M -0.7722330657981802 -0.33341815926454066 C -0.7986592923844296 -0.35984438585079026 -0.8338942611660956 -0.3715893754446786 -0.8838104669401223 -0.36278063324926224 C -0.9484079097065101 -0.3539718910538463 -1.01594159987137 -0.34809939625690145 -1.0805390426377577 -0.34516314885842947 C -1.0482403212545637 -0.3011194378813471 -1.013005352472898 -0.2600119743027367 -0.9748341362927595 -0.2189045107241263 C -0.8955554565340109 -0.23064950031801557 -0.8133405293767904 -0.2512032321073199 -0.7311256022195696 -0.2658844690996811 C -0.7458068392119306 -0.2864382008889863 -0.7604880762042914 -0.3099281800767635 -0.7722330657981802 -0.33341815926454066 Z" fill="#3e7742" transform="matrix(1,0,0,1,0,0)" fill-rule="nonzero"></path></g><g clip-path="url(#SvgjsClipPath1000906d6cbe-f902-49fc-ac2c-7c7a9bd32fde)"><path d=" M -0.6724006542501264 -0.19835077893482111 C -0.701763128234848 -0.21009576852870993 -0.7311256022195696 -0.2130320159271819 -0.7692968183997078 -0.20715952113023794 C -0.8250855189706789 -0.1954145315363487 -0.8808742195416501 -0.1866057893409323 -0.9366629201126215 -0.1807332945439879 C -0.9043641987294275 -0.14843457316079434 -0.8691292299477618 -0.11907209917607275 -0.8338942611660956 -0.08970962519135073 C -0.7663605710012358 -0.10145461478523954 -0.6900181386409594 -0.12200834657454473 -0.6019307166867942 -0.14843457316079434 C -0.628356943273044 -0.16311581015315513 -0.651846922460821 -0.1807332945439879 -0.6724006542501264 -0.19835077893482111 Z" fill="#3e7742" transform="matrix(1,0,0,1,0,0)" fill-rule="nonzero"></path></g><g clip-path="url(#SvgjsClipPath1000906d6cbe-f902-49fc-ac2c-7c7a9bd32fde)"><path d=" M -0.5020983051387404 -0.09851836738676711 C -0.598994469288322 -0.1073271095821835 -0.6929543860394314 -0.06915589340204553 -0.7839780553920688 -0.048602161612740336 C -0.7487430866104026 -0.022175935026490734 -0.7135081178287368 -0.0016222032371859818 -0.6753369016485982 0.02186777595059164 C -0.5901857270929054 0.007186538958231292 -0.49916205774026845 -0.039793419417323506 -0.4052021409891591 -0.07209214080051751 C -0.44043710977082484 -0.08090088299593434 -0.47273583115401885 -0.08970962519135073 -0.5020983051387404 -0.09851836738676711 Z" fill="#3e7742" transform="matrix(1,0,0,1,0,0)" fill-rule="nonzero"></path></g><g clip-path="url(#SvgjsClipPath1000906d6cbe-f902-49fc-ac2c-7c7a9bd32fde)"><path d=" M 0.9014279513309558 -0.6152979095178692 C 1.015941599871371 -0.6211704043148134 1.1304552484117854 -0.6270428991117578 1.2390964021552557 -0.6358516413071744 C 1.2625863813430334 -0.6975128366750896 1.2831401131323386 -0.7591740320430056 1.3007575975231709 -0.8237714748093932 C 1.1656902171934513 -0.800281495621616 1.030622836863731 -0.7856002586292554 0.8926192091355394 -0.7709190216368944 C 0.9014279513309558 -0.7298115580582836 0.9043641987294277 -0.6740228574873124 0.9014279513309558 -0.6152979095178692 Z" fill="#3e7742" transform="matrix(1,0,0,1,0,0)" fill-rule="nonzero"></path></g><g clip-path="url(#SvgjsClipPath1000906d6cbe-f902-49fc-ac2c-7c7a9bd32fde)"><path d=" M 0.8984917039324838 -0.56244545634537 C 0.8926192091355394 -0.5154654979698154 0.8838104669401226 -0.46848553959426065 0.8661929825492902 -0.42444182861717783 C 0.9484079097065106 -0.418569333820233 1.0335590842622038 -0.40682434422634506 1.1157740114194241 -0.40388809682787263 C 1.1539452275995625 -0.4596767973988438 1.1862439489827565 -0.5184017453682874 1.2126701755690057 -0.5800629407362026 C 1.1157740114194241 -0.5741904459392582 1.021814094668315 -0.5712541985407862 0.9249179305187334 -0.5653817037438418 C 0.9161091883233174 -0.56244545634537 0.9073004461278997 -0.56244545634537 0.8984917039324838 -0.56244545634537 Z" fill="#3e7742" transform="matrix(1,0,0,1,0,0)" fill-rule="nonzero"></path></g><g clip-path="url(#SvgjsClipPath1000906d6cbe-f902-49fc-ac2c-7c7a9bd32fde)"><path d=" M 0.8720654773462346 -1.0205000505070283 L 0.8720654773462346 -1.431574686293132 C 0.8720654773462346 -1.484427139465631 0.8456392507599846 -1.5314070978411856 0.7986592923844302 -1.5548970770289632 L 0.10864115374347039 -1.95716297061965 C 0.06459744276638801 -1.9835891972058994 0.00880874219541683 -1.9835891972058994 -0.03523496878166599 -1.95716297061965 L -0.7281893548210976 -1.5578333244274352 C -0.7722330657981802 -1.5314070978411856 -0.8015955397829018 -1.484427139465631 -0.8015955397829018 -1.434510933691604 L -0.8015955397829018 -1.017563803108556 C -0.822149271572207 -1.017563803108556 -0.8427030033615122 -1.0205000505070283 -0.8603204877523449 -1.0234362979055003 C -1.0218140946683143 -1.0381175348978613 -1.1833077015842837 -1.0616075140856387 -1.3389288137033086 -1.0997787302657769 C -1.3359925663048364 -1.0381175348978613 -1.330120071507892 -0.9793925869284179 -1.3213113293124756 -0.9206676389589745 C -1.1598177223965065 -0.8883689175757807 -0.9953878680820649 -0.8619426909895311 -0.8338942611660956 -0.8296439696063371 C -0.822149271572207 -0.8267077222078651 -0.8104042819783184 -0.8267077222078651 -0.7986592923844296 -0.8237714748093927 L -0.7986592923844296 -0.703385331472034 C -0.7957230449859574 -0.6534691256980067 -0.789850550189013 -0.6064891673224522 -0.7810418079935963 -0.5653817037438418 C -0.7810418079935963 -0.5653817037438418 -0.7810418079935963 -0.5653817037438418 -0.7810418079935963 -0.56244545634537 C -0.7810418079935963 -0.56244545634537 -0.7810418079935963 -0.5595092089468976 -0.7810418079935963 -0.5595092089468976 C -0.7399343444149862 -0.36278063324926224 -0.6401019328669326 -0.2512032321073199 -0.5373332739204062 -0.18954203673940473 C -0.45805459416165784 -0.14843457316079434 -0.36703092480902044 -0.12494459397301716 -0.2701347606594393 -0.11026335698065592 C -0.34354094562124327 -0.16605205755162755 -0.41107463578610304 -0.2130320159271819 -0.47273583115401885 -0.2658844690996811 C -0.52852453172499 -0.31873692227217987 -0.5696319953036002 -0.36865312804620665 -0.5901857270929054 -0.4244418286171783 C -0.6254206958745716 -0.5125292505713435 -0.6195482010776272 -0.6152979095178692 -0.5725682427020726 -0.7444927950506446 C -0.566695747905128 -0.7591740320430056 -0.5608232531081838 -0.7738552690353664 -0.5549507583112394 -0.7885365060277272 C -0.5197157895295732 -0.8531339487941152 -0.4932895629433236 -0.923603886357447 -0.463927088958602 -0.9940738239207789 C -0.46099084156013004 -1.0058188135146675 -0.46099084156013004 -1.0087550609131397 -0.4756720785524906 -1.0058188135146675 C -0.513843294732629 -0.9999463187177231 -0.5520145109127672 -0.9940738239207789 -0.5901857270929052 -1.0028825661161955 C -0.6166119536791548 -1.0058188135146675 -0.6401019328669322 -1.0146275557100841 -0.6665281594531818 -1.032245040100917 C -0.513843294732629 -1.067480008882583 -0.41107463578610304 -1.1643761730321647 -0.3141784716365219 -1.2759535741741073 C -0.3406046982227713 -1.2700810793771629 -0.36409467741054846 -1.2671448319786907 -0.3934571513952705 -1.273017326775635 C -0.3053697294411053 -1.3317422747450784 -0.21434606008846813 -1.3640409961282722 -0.11451364854041435 -1.3640409961282722 C -0.11451364854041435 -1.3669772435267444 -0.11451364854041435 -1.3669772435267444 -0.11451364854041435 -1.3699134909252166 C -0.14974861732208034 -1.378722233120633 -0.18498358610374632 -1.3845947279175774 -0.2172823074869401 -1.3934034701129938 C -0.21434606008846813 -1.3992759649099384 -0.21140981268999548 -1.3992759649099384 -0.2084735652915235 -1.3992759649099384 C -0.11157740114194237 -1.4257021914961878 -0.014681236992360791 -1.42863843889466 0.08221492715722123 -1.4051484597068826 C 0.0939599167511096 -1.4022122123084106 0.1057049063449984 -1.4022122123084106 0.11451364854041435 -1.4110209545038273 C 0.14387612252513637 -1.4315746862931322 0.3670309248090211 -1.5460883348335468 0.4022658935906871 -1.5578333244274356 C 0.4198833779815194 -1.56370581922438 0.4228196253799923 -1.5607695718259076 0.4228196253799923 -1.5431520874350748 C 0.4228196253799923 -1.528470850442714 0.22609104968235672 -1.3405510169404953 0.2466447814716619 -1.3170610377527177 C 0.29068849244874473 -1.2612723371817465 0.3288597086288827 -1.202547389212303 0.37290341960596507 -1.14382244124286 C 0.3787759144029099 -1.1379499464459153 0.3817121618013819 -1.1291412042504991 0.3817121618013819 -1.1203324620550825 C 0.3787759144029099 -1.1027149776642493 0.3875846565983263 -1.0850974932734165 0.39639339879374225 -1.0704162562810557 C 0.44043710977082506 -0.988201329123835 0.4874170681463794 -0.9089226493650864 0.5373332739204066 -0.8296439696063378 C 0.5461420161158235 -0.8178989800124492 0.5461420161158235 -0.8061539904185606 0.5373332739204066 -0.794409000824672 C 0.5138432947326295 -0.76504652683995 0.49328956294332427 -0.7327478054567562 0.46979958375554665 -0.7033853314720346 C 0.46392708895860224 -0.694576589276618 0.4551183467631863 -0.6887040944796736 0.44337335716929704 -0.6916403418781456 C 0.4198833779815194 -0.6945765892766176 0.3993296461922142 -0.6945765892766176 0.37583966700443705 -0.6945765892766176 C 0.36115843001207626 -0.6945765892766176 0.3552859352151323 -0.7004490840735624 0.3523496878166599 -0.715130321065923 C 0.3494134404181879 -0.726875310659812 0.3494134404181879 -0.7415565476521726 0.3376684508242991 -0.7533015372460612 C 0.2994972346441611 -0.7797277638323106 0.2583897710655507 -0.8090902378170326 0.22021855488541275 -0.8384527118017542 C 0.2143460600884679 -0.8413889592002266 0.2084735652915235 -0.8443252065986986 0.20260107049457954 -0.8443252065986986 C 0.13506738032971954 -0.8413889592002266 0.07927867975874836 -0.8619426909895314 0.04110746357861039 -0.920667638958975 C 0.04110746357861039 -0.9177313915605028 0.04110746357861039 -0.9147951441620306 0.04110746357861039 -0.9147951441620306 C 0.0528524531724992 -0.8208352274109212 0.09983241154805356 -0.7474290424491168 0.16442985431444157 -0.682831599682729 C 0.25545352366707874 -0.5947441777285638 0.3670309248090211 -0.5595092089468976 0.4903533155448523 -0.5653817037438422 C 0.5373332739204066 -0.5683179511423142 0.5784407374990175 -0.5829991881346748 0.6107394588822106 -0.6123616621193968 C 0.6224844484760998 -0.5213379927667596 0.6048669640852666 -0.444995560406483 0.5578870057097118 -0.3745256228431515 L 0.5432057687173515 -0.36571688064773467 C 0.5402695213188786 -0.36865312804620665 0.5373332739204066 -0.3715893754446795 0.5314607791234618 -0.3745256228431515 C 0.5109070473341566 -0.3921431072339838 0.48448082074790744 -0.40682434422634506 0.4580545941616583 -0.41856933382023387 C 0.36409467741054824 -0.45967679739884426 0.26719851326096755 -0.4861030239850934 0.17030234911138553 -0.5154654979698154 C 0.07634243236027638 -0.544827971954537 -0.017617484390833216 -0.5771266933377306 -0.1057049063449984 -0.6241066517132854 C -0.1644298543144418 -0.6564053730964794 -0.217282307486941 -0.6916403418781454 -0.25251727626860676 -0.7503652898475888 C -0.25545352366707874 -0.7562377846445332 -0.2613260184640236 -0.7621102794414776 -0.2613260184640236 -0.7738552690353664 C -0.18791983350221897 -0.7180665684643945 -0.1057049063449984 -0.703385331472034 -0.017617484390833216 -0.703385331472034 C -0.19966482309610756 -0.7797277638323101 -0.27600725545638416 -0.9236038863574465 -0.2701347606594393 -1.1144599672581375 C -0.2730710080579113 -1.1115237198596652 -0.27600725545638416 -1.1115237198596652 -0.27600725545638416 -1.1115237198596652 C -0.27894350285485614 -1.1056512250627208 -0.28481599765180077 -1.0997787302657767 -0.28775224505027275 -1.0939062354688323 C -0.32298721383193874 -1.0263725453039725 -0.34060469822277195 -0.9500301129436961 -0.34354094562124393 -0.8736876805834197 C -0.3464771930197159 -0.7591740320430047 -0.3053697294411062 -0.6593416204949514 -0.2260910496823576 -0.5741904459392582 C -0.1526848647205532 -0.4949117661805098 -0.06459744276638801 -0.4420593130080106 0.029362473984721138 -0.39801560203092823 C 0.09689616414958113 -0.3657168806477342 0.1614936069159687 -0.33048191186606823 0.22315480228388385 -0.28643820088898586 C 0.2495810288701339 -0.26588446909968066 0.27600725545638305 -0.24826698470884745 0.29949723464416067 -0.22477700552107027 C 0.31124222423804904 -0.2130320159271819 0.32298721383193785 -0.2012870263332931 0.3317959560273538 -0.1866057893409323 C 0.33473220342582577 -0.1807332945439879 0.3376684508242982 -0.17779704714551592 0.3406046982227702 -0.1719245523485715 C 0.320050966433465 -0.15724331535621028 0.2994972346441598 -0.13962583096537795 0.2760072554563826 -0.12494459397301716 C 0.284815997651799 -0.12494459397301716 0.2965609872456878 -0.1278808413714887 0.3112422242380486 -0.1278808413714887 C 0.32298721383193785 -0.13081708876996068 0.33473220342582577 -0.13081708876996068 0.346477193019715 -0.1337533361684331 C 0.346477193019715 -0.1337533361684331 0.346477193019715 -0.1337533361684331 0.346477193019715 -0.13081708876996112 C 0.3640946774105478 -0.1337533361684331 0.381712161801381 -0.13668958356690597 0.4022658935906862 -0.14256207836385038 C 0.5402695213188777 -0.17779704714551636 0.7311256022195689 -0.2688207164981531 0.8221492715722061 -0.5066567557743991 C 0.8603204877523445 -0.6064891673224533 0.8808742195416497 -0.6916403418781456 0.8720654773462333 -0.8501977013956432 C 0.8720654773462333 -0.8501977013956432 0.8750017247447053 -0.8443252065986988 0.8838104669401217 -0.8443252065986988 C 1.03062283686373 -0.8707514331849482 1.1744989593888664 -0.8971776597711978 1.3213113293124756 -0.9236038863574474 C 1.3301200715078916 -0.9823288343268908 1.335992566304836 -1.0410537822963342 1.338928813703308 -1.1027149776642498 C 1.186243948982756 -1.0586712666871667 1.030622836863731 -1.0351812874993893 0.8720654773462346 -1.0205000505070283 Z" fill="#3e7742" transform="matrix(1,0,0,1,0,0)" fill-rule="nonzero"></path></g><g clip-path="url(#SvgjsClipPath1000906d6cbe-f902-49fc-ac2c-7c7a9bd32fde)"><path d=" M 1.330120071507893 -0.3011194378813471 C 1.327183824109421 -0.3128644274752359 1.327183824109421 -0.3216731696706523 1.3242475767109485 -0.33341815926454066 C 1.2420326495537277 -0.33929065406148506 1.1598177223965065 -0.34222690145995704 1.0776027952392853 -0.34516314885842947 C 1.0453040738560921 -0.3011194378813471 1.0100691050744257 -0.2600119743027367 0.9718978888942877 -0.2189045107241263 C 1.1010927744270633 -0.2012870263332931 1.2214789177644225 -0.20715952113023794 1.330120071507893 -0.3011194378813471 Z" fill="#431a10" transform="matrix(1,0,0,1,0,0)" fill-rule="nonzero"></path></g><g clip-path="url(#SvgjsClipPath1000906d6cbe-f902-49fc-ac2c-7c7a9bd32fde)"><path d=" M 0.8427030033615126 -0.36571688064773467 C 0.8250855189706803 -0.3275456644675967 0.8015955397829022 -0.2923106956859307 0.7692968183997082 -0.2570757269042647 C 0.8368305085645682 -0.2423944899119035 0.9073004461279006 -0.2277132529195427 0.9718978888942886 -0.2189045107241263 C 1.0100691050744262 -0.26001197430273715 1.0453040738560921 -0.3011194378813471 1.0776027952392861 -0.34516314885842947 C 1.0130053524728981 -0.34809939625690145 0.9454716623080386 -0.3539718910538463 0.8808742195416506 -0.36278063324926224 C 0.8661929825492902 -0.36571688064773467 0.8544479929554014 -0.36571688064773467 0.8427030033615126 -0.36571688064773467 Z" fill="#3e7742" transform="matrix(1,0,0,1,0,0)" fill-rule="nonzero"></path></g><g clip-path="url(#SvgjsClipPath1000906d6cbe-f902-49fc-ac2c-7c7a9bd32fde)"><path d=" M 0.7193806126256819 -0.21009576852870993 C 0.6900181386409598 -0.18366954194245988 0.6547831698592939 -0.16311581015315513 0.6166119536791559 -0.14256207836384993 C 0.6958906334379042 -0.11907209917607275 0.7663605710012362 -0.09851836738676711 0.8309580137676242 -0.08970962519135073 C 0.8661929825492902 -0.11907209917607275 0.9014279513309558 -0.14843457316079434 0.9337266727141498 -0.1807332945439879 C 0.8779379721431786 -0.1866057893409323 0.8221492715722074 -0.1954145315363487 0.7663605710012362 -0.20715952113023794 C 0.748743086610403 -0.21009576852870993 0.7340618496180422 -0.21009576852870993 0.7193806126256819 -0.21009576852870993 Z" fill="#3e7742" transform="matrix(1,0,0,1,0,0)" fill-rule="nonzero"></path></g><g clip-path="url(#SvgjsClipPath1000906d6cbe-f902-49fc-ac2c-7c7a9bd32fde)"><path d=" M 0.5138432947326295 -0.10145461478523954 C 0.48154457334943634 -0.08970962519135073 0.44630960456777036 -0.08090088299593434 0.40520214098915996 -0.07502838819898994 L 0.40520214098915996 -0.07502838819898994 C 0.40520214098915996 -0.07502838819898994 0.40520214098915996 -0.07502838819898994 0.40520214098915996 -0.07502838819898994 C 0.49916205774026867 -0.042729666815796374 0.5872494796944339 0.0013140441612859988 0.675336901648599 0.018931528552119214 C 0.713508117828737 -0.0016222032371859818 0.748743086610403 -0.02511218242496316 0.7839780553920694 -0.05153840901121276 C 0.6929543860394318 -0.06915589340204553 0.6048669640852666 -0.10439086218371152 0.5138432947326295 -0.10145461478523954 Z" fill="#3e7742" transform="matrix(1,0,0,1,0,0)" fill-rule="nonzero"></path></g></g></g></g><defs><clipPath id="SvgjsClipPath1001"><path d=" M -2.1583114041972604 -2.4886237497431125 h 4.316622808394521 v 2.5136237497431124 h -4.316622808394521 Z"></path></clipPath><clipPath id="SvgjsClipPath1000906d6cbe-f902-49fc-ac2c-7c7a9bd32fde"><path d=" M -2.1583114041972604 -2.4886237497431125 L 2.1583114041972604 -2.4886237497431125 L 2.1583114041972604 0.02499999999999991 L -2.1583114041972604 0.02499999999999991 Z"></path></clipPath></defs></svg>